<svg xmlns="http://www.w3.org/2000/svg" fill-rule="evenodd" stroke-linejoin="round" stroke-miterlimit="2" clip-rule="evenodd" viewBox="0 0 6250 1250">
  <path fill="none" d="M.002 0h6249.995v1250H.002z"/>
  <text x="1180.9" y="490.202" fill="#fff" font-family="'Futura-Medium','Futura',sans-serif" font-size="833.333" font-weight="500" transform="matrix(1.257 0 0 1.257 -92.438 421.061)">
    A<tspan x="1774.16px 2389.8px 2771.88px 3516.51px" y="490.202px 490.202px 490.202px 490.202px">UTOG</tspan>O
  </text>
  <g fill-rule="nonzero">
    <path fill="#fff" d="M1181.512 512.333l-27.068-47.283c-2.516-4.31-8.122-5.802-12.448-3.312l-57.904 33.806-89.426-246.919c-9.662-30.15-37.892-50.732-69.553-50.708H430.246c-39.63 0-74.807 25.582-87.028 63.385l-85.2 234.356L200 461.852c-4.326-2.49-9.932-.998-12.448 3.312l-27.068 47.169c-2.512 4.34-1.028 9.821 3.312 12.334l68.982 40.201-16.56 45.684a32.57 32.57 0 00-2.056 11.42v397.675c0 17.93 13.477 32.435 30.037 32.435h77.205c14.048 0 26.269-10.622 29.238-25.469l8.794-43.056H982.56l8.794 43.056c3.084 14.847 15.19 25.469 29.238 25.469h77.205c16.56 0 30.037-14.505 30.037-32.435V621.973a32.57 32.57 0 00-2.056-11.421l-16.56-45.684 68.868-40.201c4.285-2.475 5.82-8.004 3.426-12.334zm-760.974-223.05l.57-1.484.458-1.485c1.256-3.769 4.682-6.282 8.68-6.282h488.357l86.113 237.554H337.508l83.03-228.303zm625.065 612.044h-749.21V630.652l17.816-49.11h713.578l17.816 49.11v270.675z"/>
    <path fill="#fff" d="M908.553 703.746c0 25.06 20.622 45.683 45.683 45.683s45.684-20.622 45.684-45.683c0-25.06-20.623-45.683-45.684-45.683-25.06 0-45.683 20.622-45.683 45.683zM342.076 703.746c0 25.06 20.623 45.683 45.684 45.683 25.06 0 45.683-20.622 45.683-45.683 0-25.06-20.622-45.683-45.683-45.683s-45.684 20.622-45.684 45.683zm479.678 26.268H776.07c-5.025 0-9.137 4.111-9.137 9.137v41.115h-191.87V739.15c0-5.026-4.112-9.137-9.137-9.137h-45.684c-5.025 0-9.136 4.111-9.136 9.137v95.935c0 5.025 4.111 9.136 9.136 9.136h301.512c5.025 0 9.136-4.111 9.136-9.136V739.15c0-5.026-4.111-9.137-9.136-9.137z"/>
    <path fill="#ffb52f" d="M314.21 581.543l-17.817 49.11v270.674h749.21V630.652l-17.816-49.11H314.209zm73.55 167.886c-25.24 0-45.684-20.443-45.684-45.683s20.444-45.683 45.684-45.683 45.683 20.443 45.683 45.683S413 749.429 387.76 749.429zm443.13 85.657c0 5.025-4.111 9.136-9.136 9.136H520.242c-5.025 0-9.136-4.111-9.136-9.136V739.15c0-5.026 4.111-9.137 9.136-9.137h45.684c5.025 0 9.137 4.111 9.137 9.137v41.115h191.87V739.15c0-5.026 4.112-9.137 9.137-9.137h45.684c5.025 0 9.136 4.111 9.136 9.137v95.935zm123.346-85.657c-25.24 0-45.683-20.443-45.683-45.683s20.443-45.683 45.683-45.683 45.684 20.443 45.684 45.683-20.444 45.683-45.684 45.683z"/>
  </g>
</svg>
