<svg xmlns="http://www.w3.org/2000/svg" fill-rule="evenodd" stroke-linejoin="round" stroke-miterlimit="2" clip-rule="evenodd" viewBox="0 0 6250 1250">
  <path fill="none" d="M.002-.003h6249.995v1250H.002z"/>
  <text x="1180.9" y="490.202" font-family="'Futura-Medium','Futura',sans-serif" font-size="833.333" font-weight="500" transform="matrix(1.257 0 0 1.257 -92.438 421.058)">
    A<tspan x="1774.16px 2389.8px 2771.88px 3516.51px" y="490.202px 490.202px 490.202px 490.202px">UTOG</tspan>O
  </text>
  <path fill-rule="nonzero" stroke="#fff" stroke-width=".88" d="M959 413.4L935.3 372c-2.203-3.774-7.112-5.08-10.9-2.9l-50.7 29.6-78.3-216.2c-8.46-26.4-33.178-44.421-60.9-44.4H301.2c-34.7 0-65.5 22.4-76.2 55.5l-74.6 205.2-50.8-29.6c-3.788-2.18-8.697-.874-10.9 2.9L65 413.4c-2.2 3.8-.9 8.6 2.9 10.8l60.4 35.2-14.5 40c-1.2 3.2-1.8 6.6-1.8 10v348.2c0 15.7 11.8 28.4 26.3 28.4h67.6c12.3 0 23-9.3 25.6-22.3l7.7-37.7h545.6l7.7 37.7c2.7 13 13.3 22.3 25.6 22.3h67.6c14.5 0 26.3-12.7 26.3-28.4V509.4c0-3.4-.6-6.8-1.8-10l-14.5-40 60.3-35.2c3.752-2.167 5.097-7.008 3-10.8zM264 621c-22.1 0-40-17.9-40-40s17.9-40 40-40 40 17.9 40 40-17.9 40-40 40zm388 75c0 4.4-3.6 8-8 8H380c-4.4 0-8-3.6-8-8v-84c0-4.4 3.6-8 8-8h40c4.4 0 8 3.6 8 8v36h168v-36c0-4.4 3.6-8 8-8h40c4.4 0 8 3.6 8 8v84zm108-75c-22.1 0-40-17.9-40-40s17.9-40 40-40 40 17.9 40 40-17.9 40-40 40zM220 418l72.7-199.9.5-1.3.4-1.3c1.1-3.3 4.1-5.5 7.6-5.5h427.6l75.4 208H220z" transform="matrix(1.14209 0 0 1.14208 86.09 40.192)"/>
</svg>
