<svg xmlns="http://www.w3.org/2000/svg" fill-rule="evenodd" stroke-linejoin="round" stroke-miterlimit="2" clip-rule="evenodd" viewBox="0 0 6250 1250">
  <path fill="none" d="M.002-.003h6249.995v1250H.002z"/>
  <path fill-rule="nonzero" d="M1950.281 845.552h-338.344l-87.99 191.693H1396.15l390.72-839.051 377.101 839.051h-130.938l-82.753-191.693zm-48.185-112.083l-117.32-268.162-122.559 268.162h239.88zM2351.384 247.426v475.568c0 68.087 11.523 117.32 33.52 148.745 32.473 46.09 79.61 68.088 139.318 68.088 60.756 0 106.846-21.997 140.366-68.088 21.998-30.377 33.52-79.61 33.52-148.745V247.426h118.368v508.04c0 83.8-25.14 151.888-77.515 206.359-57.613 59.708-129.89 90.085-214.739 90.085-84.848 0-156.078-30.377-213.69-90.085-52.376-54.47-78.564-122.558-78.564-206.359v-508.04h119.416zM3223.713 359.51v677.735h-118.368V359.51H2923.08V247.426h481.853V359.51h-181.219zM3447.352 639.193c0-111.035 40.852-207.406 121.51-287.016 81.706-79.61 179.124-119.416 293.302-119.416 112.083 0 208.453 39.806 289.111 120.463 80.658 80.658 121.51 177.029 121.51 290.16 0 113.13-40.852 209.5-121.51 289.11-81.705 79.611-180.17 119.416-295.396 119.416-101.608 0-193.789-35.615-274.447-105.798-90.085-78.563-134.08-181.218-134.08-306.919zm119.415 1.048c0 86.943 29.33 159.22 87.99 215.786 58.661 55.517 125.701 83.8 202.17 83.8 82.752 0 152.935-28.283 210.548-85.895 56.565-57.613 84.848-128.843 84.848-211.596 0-83.8-28.283-155.031-83.8-211.596-56.566-57.613-125.701-85.896-208.454-85.896-81.706 0-150.841 28.283-207.406 85.896-57.613 56.565-85.896 126.748-85.896 209.5zM4828.546 625.576h326.822v26.187c0 59.708-7.333 112.083-20.95 158.174-13.618 41.9-36.663 81.705-69.135 118.368-73.326 82.752-166.554 123.605-279.684 123.605-111.036 0-205.311-39.805-283.874-119.415-79.61-80.658-118.368-175.981-118.368-288.064 0-115.226 39.805-212.644 119.415-292.254 80.658-79.61 178.076-120.463 293.302-120.463 61.803 0 119.415 12.57 172.838 38.757 51.328 25.14 101.608 65.993 150.84 122.559l-84.847 80.657c-64.945-85.895-143.508-128.843-236.736-128.843-83.8 0-153.984 28.283-210.549 85.896-56.565 56.565-84.848 127.795-84.848 213.69 0 86.944 31.425 160.269 94.276 216.834 59.708 52.376 123.605 79.61 191.693 79.61 58.66 0 112.083-19.902 158.173-59.707 47.138-39.805 73.326-87.99 78.563-143.508h-196.93V625.576zM5265.662 639.193c0-111.035 40.853-207.406 121.51-287.016 81.706-79.61 179.124-119.416 293.302-119.416 112.083 0 208.454 39.806 289.112 120.463 80.658 80.658 121.51 177.029 121.51 290.16 0 113.13-40.852 209.5-121.51 289.11-81.706 79.611-180.171 119.416-295.397 119.416-101.608 0-193.788-35.615-274.446-105.798-90.085-78.563-134.08-181.218-134.08-306.919zm119.416 1.048c0 86.943 29.33 159.22 87.99 215.786 58.66 55.517 125.701 83.8 202.169 83.8 82.753 0 152.936-28.283 210.548-85.895 56.566-57.613 84.848-128.843 84.848-211.596 0-83.8-28.282-155.031-83.8-211.596-56.565-57.613-125.7-85.896-208.454-85.896-81.705 0-150.84 28.283-207.406 85.896-57.612 56.565-85.895 126.748-85.895 209.5z"/>
  <g>
    <path fill-rule="nonzero" stroke="#fff" stroke-width=".88" d="M959 413.4L935.3 372c-2.203-3.774-7.112-5.08-10.9-2.9l-50.7 29.6-78.3-216.2c-8.46-26.4-33.178-44.421-60.9-44.4H301.2c-34.7 0-65.5 22.4-76.2 55.5l-74.6 205.2-50.8-29.6c-3.788-2.18-8.697-.874-10.9 2.9L65 413.4c-2.2 3.8-.9 8.6 2.9 10.8l60.4 35.2-14.5 40c-1.2 3.2-1.8 6.6-1.8 10v348.2c0 15.7 11.8 28.4 26.3 28.4h67.6c12.3 0 23-9.3 25.6-22.3l7.7-37.7h545.6l7.7 37.7c2.7 13 13.3 22.3 25.6 22.3h67.6c14.5 0 26.3-12.7 26.3-28.4V509.4c0-3.4-.6-6.8-1.8-10l-14.5-40 60.3-35.2c3.752-2.167 5.097-7.008 3-10.8zM264 621c-22.1 0-40-17.9-40-40s17.9-40 40-40 40 17.9 40 40-17.9 40-40 40zm388 75c0 4.4-3.6 8-8 8H380c-4.4 0-8-3.6-8-8v-84c0-4.4 3.6-8 8-8h40c4.4 0 8 3.6 8 8v36h168v-36c0-4.4 3.6-8 8-8h40c4.4 0 8 3.6 8 8v84zm108-75c-22.1 0-40-17.9-40-40s17.9-40 40-40 40 17.9 40 40-17.9 40-40 40zM220 418l72.7-199.9.5-1.3.4-1.3c1.1-3.3 4.1-5.5 7.6-5.5h427.6l75.4 208H220z" transform="matrix(1.14209 0 0 1.14208 86.09 40.192)"/>
  </g>
</svg>
