<svg xmlns="http://www.w3.org/2000/svg" fill-rule="evenodd" stroke-linejoin="round" stroke-miterlimit="2" clip-rule="evenodd" viewBox="0 0 6250 1250">
  <path fill="none" d="M.002 0h6249.995v1250H.002z"/>
  <path fill="#fff" fill-rule="nonzero" d="M1950.281 845.555h-338.344l-87.99 191.693H1396.15l390.72-839.051 377.101 839.051h-130.938l-82.753-191.693zm-48.185-112.083l-117.32-268.162-122.559 268.162h239.88zM2351.384 247.43v475.567c0 68.087 11.523 117.32 33.52 148.745 32.473 46.09 79.61 68.088 139.318 68.088 60.756 0 106.846-21.997 140.366-68.088 21.998-30.377 33.52-79.61 33.52-148.745V247.429h118.368v508.04c0 83.8-25.14 151.888-77.515 206.359-57.613 59.708-129.89 90.085-214.739 90.085-84.848 0-156.078-30.377-213.69-90.085-52.376-54.47-78.564-122.558-78.564-206.359V247.43h119.416zM3223.713 359.512v677.736h-118.368V359.512H2923.08V247.43h481.853v112.083h-181.219zM3447.352 639.196c0-111.035 40.852-207.406 121.51-287.016 81.706-79.61 179.124-119.416 293.302-119.416 112.083 0 208.453 39.806 289.111 120.463 80.658 80.658 121.51 177.029 121.51 290.16 0 113.13-40.852 209.5-121.51 289.11-81.705 79.611-180.17 119.416-295.396 119.416-101.608 0-193.789-35.615-274.447-105.798-90.085-78.563-134.08-181.218-134.08-306.919zm119.415 1.048c0 86.943 29.33 159.22 87.99 215.786 58.661 55.517 125.701 83.8 202.17 83.8 82.752 0 152.935-28.283 210.548-85.895 56.565-57.613 84.848-128.843 84.848-211.596 0-83.8-28.283-155.031-83.8-211.596-56.566-57.613-125.701-85.896-208.454-85.896-81.706 0-150.841 28.283-207.406 85.896-57.613 56.565-85.896 126.748-85.896 209.5zM4828.546 625.579h326.822v26.187c0 59.708-7.333 112.083-20.95 158.174-13.618 41.9-36.663 81.705-69.135 118.368-73.326 82.752-166.554 123.605-279.684 123.605-111.036 0-205.311-39.805-283.874-119.415-79.61-80.658-118.368-175.981-118.368-288.064 0-115.226 39.805-212.644 119.415-292.254 80.658-79.61 178.076-120.463 293.302-120.463 61.803 0 119.415 12.57 172.838 38.757 51.328 25.14 101.608 65.993 150.84 122.559l-84.847 80.657c-64.945-85.895-143.508-128.843-236.736-128.843-83.8 0-153.984 28.283-210.549 85.896-56.565 56.565-84.848 127.795-84.848 213.69 0 86.944 31.425 160.269 94.276 216.834 59.708 52.376 123.605 79.61 191.693 79.61 58.66 0 112.083-19.902 158.173-59.707 47.138-39.805 73.326-87.99 78.563-143.508h-196.93V625.579zM5265.662 639.196c0-111.035 40.853-207.406 121.51-287.016 81.706-79.61 179.124-119.416 293.302-119.416 112.083 0 208.454 39.806 289.112 120.463 80.658 80.658 121.51 177.029 121.51 290.16 0 113.13-40.852 209.5-121.51 289.11-81.706 79.611-180.171 119.416-295.397 119.416-101.608 0-193.788-35.615-274.446-105.798-90.085-78.563-134.08-181.218-134.08-306.919zm119.416 1.048c0 86.943 29.33 159.22 87.99 215.786 58.66 55.517 125.701 83.8 202.169 83.8 82.753 0 152.936-28.283 210.548-85.895 56.566-57.613 84.848-128.843 84.848-211.596 0-83.8-28.282-155.031-83.8-211.596-56.565-57.613-125.7-85.896-208.454-85.896-81.705 0-150.84 28.283-207.406 85.896-57.612 56.565-85.895 126.748-85.895 209.5z"/>
  <g>
    <path fill="#fff" fill-rule="nonzero" d="M1181.512 512.332l-27.07-47.282c-2.52-4.31-8.12-5.802-12.45-3.312l-57.9 33.805-89.426-246.918c-9.662-30.15-37.892-50.732-69.553-50.708H430.246c-39.631 0-74.807 25.582-87.027 63.385l-85.2 234.356L200 461.852c-4.326-2.49-9.932-.998-12.449 3.312l-27.067 47.168c-2.513 4.34-1.028 9.822 3.312 12.335l68.982 40.201-16.56 45.684a32.552 32.552 0 00-2.056 11.42v397.676c0 17.93 13.476 32.43 30.037 32.43h77.206c14.047 0 26.268-10.62 29.237-25.46l8.794-43.062H982.56l8.794 43.062c3.083 14.84 15.188 25.46 29.238 25.46h77.2c16.57 0 30.04-14.5 30.04-32.43V621.972c0-3.883-.68-7.766-2.05-11.42l-16.57-45.684 68.87-40.2c4.29-2.476 5.82-8.005 3.43-12.336zM420.538 289.284l.57-1.485.458-1.485c1.256-3.77 4.682-6.281 8.68-6.281h488.357l86.109 237.553H337.508l83.03-228.302zm625.064 612.042h-749.21V630.652l17.818-49.109h713.572l17.82 49.109v270.674zm-137.05-197.58c0 25.06 20.623 45.683 45.684 45.683 25.06 0 45.684-20.622 45.684-45.683s-20.623-45.684-45.684-45.684c-25.061 0-45.683 20.623-45.683 45.684zm-566.475 0c0 25.06 20.622 45.683 45.683 45.683 25.06 0 45.684-20.622 45.684-45.683s-20.623-45.684-45.684-45.684c-25.061 0-45.683 20.623-45.683 45.684zm479.677 26.268H776.07c-5.026 0-9.137 4.11-9.137 9.137v41.115h-191.87V739.15c0-5.026-4.112-9.137-9.137-9.137h-45.684c-5.025 0-9.137 4.11-9.137 9.137v95.935c0 5.025 4.112 9.137 9.137 9.137h301.512c5.025 0 9.137-4.112 9.137-9.137V739.15c0-5.026-4.112-9.137-9.137-9.137z"/>
    <path fill="#ffb52f" fill-rule="nonzero" d="M314.21 581.543l-17.817 49.11v270.674h749.21V630.652l-17.816-49.11H314.209zm73.55 167.886c-25.24 0-45.684-20.443-45.684-45.683s20.444-45.683 45.684-45.683 45.683 20.443 45.683 45.683S413 749.429 387.76 749.429zm443.13 85.657c0 5.025-4.111 9.136-9.136 9.136H520.242c-5.025 0-9.136-4.111-9.136-9.136V739.15c0-5.026 4.111-9.137 9.136-9.137h45.684c5.025 0 9.137 4.111 9.137 9.137v41.115h191.87V739.15c0-5.026 4.112-9.137 9.137-9.137h45.684c5.025 0 9.136 4.111 9.136 9.137v95.935zm123.346-85.657c-25.24 0-45.683-20.443-45.683-45.683s20.443-45.683 45.683-45.683 45.684 20.443 45.684 45.683-20.444 45.683-45.684 45.683z"/>
  </g>
</svg>
