<svg xmlns="http://www.w3.org/2000/svg" fill-rule="evenodd" stroke-linejoin="round" stroke-miterlimit="2" clip-rule="evenodd" viewBox="0 0 512 512">
  <g transform="translate(0 -454.497) scale(.62127)">
    <path fill="none" d="M0 731.56h824.116v824.116H0z"/>
    <clipPath id="a">
      <path d="M0 731.56h824.116v824.116H0z"/>
    </clipPath>
    <g clip-path="url(#a)">
      <path d="M824.11 1555.67H-.002V731.558h824.11v824.112zM650.16 886.08H247.034c-4.27 0-8.364 1.696-11.382 4.714l-67.392 67.392a8.048 8.048 0 005.69 13.74h154.317a8.047 8.047 0 015.69 13.74c-28.75 28.739-92.661 92.632-93.555 93.522-.005.006-.013.01-.022.01-.01 0-.018.003-.023.01-.768.766-48.045 48.044-72.097 72.097a8.048 8.048 0 005.69 13.74h261.632a8.048 8.048 0 015.692 13.737 5247519.901 5247519.901 0 01-206.633 206.592c-2.985 2.994-3.156 7.775-.39 10.962 2.768 3.203 7.53 3.702 10.91 1.175 124.325-93.245 339.794-254.839 405.111-303.827a8.058 8.058 0 002.817-8.983 8.063 8.063 0 00-7.645-5.503H388.54a8.047 8.047 0 01-5.69-13.74l88.848-88.82a16.092 16.092 0 0111.38-4.712h94.006c4.265 0 8.354-1.697 11.38-4.715a297230.35 297230.35 0 0167.394-67.392 8.029 8.029 0 001.738-8.77 8.048 8.048 0 00-7.436-4.97z"/>
    </g>
  </g>
</svg>
