<svg xmlns="http://www.w3.org/2000/svg" fill-rule="evenodd" stroke-linejoin="round" stroke-miterlimit="2" clip-rule="evenodd" viewBox="0 0 512 512"><g transform="translate(0 -454.497) scale(.62127)"><path fill="none" d="M0 731.56h824.116v824.116H0z"/><clipPath id="a"><path d="M0 731.56h824.116v824.116H0z"/></clipPath><g clip-path="url(#a)"><path fill="url(#_Radial2)" d="M241.012 130.397h200.505v475.36H241.012z" transform="matrix(4.11021 0 0 1.73367 -990.61 505.495)"/><path fill="#fff" d="M245.162 1397.512c-3.379 2.527-8.141 2.028-10.908-1.175-2.767-3.187-2.597-7.968.39-10.962 71.628-71.61 170.67-170.633 206.63-206.592a8.045 8.045 0 00-5.69-13.738H173.952a8.05 8.05 0 01-5.69-13.74c24.052-24.052 71.33-71.33 72.095-72.097a.033.033 0 01.025-.01c.008 0 .017-.003.022-.009.892-.89 64.806-64.783 93.555-93.523a8.048 8.048 0 00-5.69-13.74H173.952a8.047 8.047 0 01-5.69-13.739c19.63-19.63 54.733-54.732 67.39-67.392a16.1 16.1 0 0111.382-4.714h403.13a8.05 8.05 0 015.69 13.74l-67.39 67.391a16.1 16.1 0 01-11.382 4.715H483.08a16.092 16.092 0 00-11.38 4.713c-15.399 15.392-64.615 64.595-88.848 88.82a8.046 8.046 0 005.69 13.739h256.907a8.048 8.048 0 014.828 14.486c-65.319 48.988-280.791 210.582-405.115 303.827z"/></g></g><defs><radialGradient id="_Radial2" cx="0" cy="0" r="1" gradientTransform="scale(283.557 672.26) rotate(45 .19 1.123)" gradientUnits="userSpaceOnUse"><stop offset="0" stop-color="#00c9eb"/><stop offset="1" stop-color="#9100e4"/></radialGradient></defs></svg>