<svg xmlns="http://www.w3.org/2000/svg" fill-rule="evenodd" stroke-linejoin="round" stroke-miterlimit="2" clip-rule="evenodd" viewBox="0 0 1000 530">
  <path fill="none" d="M0-.003h1000.002v530H0z"/>
  <path fill="defaultColor" fill-rule="nonzero" d="M124.24 83.325c.72.16 1.52.32 2.4.4.72.08 1.52.16 2.4.24.8.08 1.6.16 2.48.16 1.52 0 2.96-.16 4.4-.56 1.36-.32 2.64-.88 3.76-1.68 1.12-.8 2-1.84 2.72-3.12.64-1.2.96-2.72.96-4.56 0-1.52-.4-3.04-1.12-4.4-.8-1.36-1.76-2.72-2.96-4-1.2-1.28-2.48-2.48-3.84-3.68a84.39 84.39 0 01-3.84-3.6c-1.2-1.12-2.24-2.4-2.96-3.6-.8-1.12-1.2-2.4-1.2-3.68 0-1.92.64-3.44 1.84-4.48 1.2-1.04 3.2-1.52 5.92-1.52h1.36c.4.08.88.08 1.28.16s.88.08 1.28.08v-2.08c-.4 0-.8 0-1.2-.08-.4-.08-.8-.08-1.2-.16h-1.44c-2.88 0-5.28.64-7.12 1.92-1.84 1.36-2.8 3.36-2.8 6.16 0 1.52.4 2.88 1.2 4.16.72 1.36 1.76 2.64 2.96 3.84 1.2 1.28 2.48 2.48 3.84 3.68 1.36 1.2 2.56 2.32 3.84 3.52 1.2 1.2 2.16 2.48 2.96 3.76.72 1.28 1.12 2.64 1.12 4 0 2.56-.88 4.48-2.56 5.84-1.76 1.36-4.16 2-7.2 2-1.84 0-3.44-.16-4.96-.4-.8-.08-1.6-.24-2.32-.4v2.08zm-6.72-9.6c1.2.4 2.4.64 3.68.88 1.04.24 2.32.48 3.68.64 1.36.16 2.72.24 4.08.24 2.48 0 3.68-.88 3.68-2.72 0-.72-.4-1.44-1.12-2.16-.72-.72-1.68-1.52-2.8-2.4-1.2-.8-2.4-1.84-3.68-2.88-1.36-1.04-2.56-2.32-3.68-3.68-1.2-1.36-2.16-2.96-2.88-4.72-.72-1.68-1.12-3.68-1.12-5.92 0-2.48.48-4.72 1.36-6.64.88-1.92 2.16-3.52 3.76-4.8 1.6-1.28 3.52-2.24 5.68-2.96 2.16-.64 4.4-.96 6.88-.96 1.28 0 2.56.08 3.84.16 1.28.16 2.4.32 3.44.4 1.2.16 2.32.32 3.44.48v14.96l-2.88-.32c-.56-.08-1.12-.08-1.68-.08H140c-.48.08-.96.16-1.36.24-.4.08-.8.32-1.12.56-.32.24-.48.64-.48 1.12 0 .4.4.96 1.12 1.6.72.64 1.6 1.36 2.64 2.24 1.04.88 2.16 1.84 3.44 2.96 1.2 1.12 2.4 2.4 3.44 3.84s1.92 3.04 2.64 4.88c.72 1.84 1.04 3.84 1.04 6.08 0 2.32-.4 4.56-1.12 6.56-.72 2.08-1.92 3.84-3.44 5.36-1.6 1.6-3.6 2.72-6.08 3.68-2.48.88-5.36 1.28-8.72 1.28-2 0-3.92-.08-5.6-.24-1.76-.24-3.28-.48-4.64-.72-1.52-.24-2.96-.56-4.24-.96v-16zM154.96 36.925H172v18.16h9.52v-18.16h17.121v53.36h-17.12v-19.76H172v19.76h-17.04v-53.36zm10.08 46.96v-20.24h23.52v20.24h2.08v-40.56h-2.08v18.4h-23.52v-18.4h-2.08v40.56h2.08zM203.04 63.645c0-3.84.72-7.44 2.24-10.88 1.44-3.44 3.44-6.4 6-8.96 2.48-2.48 5.44-4.48 8.88-6 3.44-1.44 7.04-2.16 10.881-2.16 3.84 0 7.44.72 10.88 2.16 3.44 1.52 6.4 3.52 8.96 6 2.48 2.56 4.48 5.52 6 8.96 1.44 3.44 2.16 7.04 2.16 10.88 0 3.84-.72 7.44-2.16 10.88-1.52 3.44-3.52 6.4-6 8.88a27.556 27.556 0 01-8.96 6c-3.44 1.52-7.04 2.24-10.88 2.24-3.84 0-7.44-.72-10.88-2.24-3.44-1.44-6.4-3.44-8.88-6-2.56-2.48-4.56-5.44-6-8.88-1.52-3.44-2.24-7.04-2.24-10.88zm7.52 0c0 2.8.56 5.44 1.6 7.92 1.04 2.48 2.56 4.72 4.4 6.56 1.84 1.84 4.08 3.36 6.56 4.4a20.3 20.3 0 007.921 1.6c2.8 0 5.52-.56 8-1.6 2.48-1.04 4.64-2.56 6.48-4.4 1.84-1.84 3.36-4.08 4.4-6.56a20.3 20.3 0 001.6-7.92c0-2.8-.56-5.44-1.6-8-1.04-2.48-2.56-4.64-4.4-6.48-1.84-1.84-4-3.36-6.48-4.4-2.48-1.04-5.2-1.6-8-1.6s-5.44.56-7.92 1.6a20.562 20.562 0 00-6.56 4.4c-1.84 1.84-3.36 4-4.4 6.48-1.04 2.56-1.6 5.2-1.6 8zm9.28 0c0 1.52.32 2.96.88 4.32.56 1.36 1.36 2.56 2.4 3.6 1.04 1.04 2.24 1.84 3.6 2.4 1.36.56 2.801.88 4.321.88 1.52 0 3.04-.32 4.4-.88 1.36-.56 2.48-1.36 3.52-2.4 1.04-1.04 1.84-2.24 2.4-3.6.56-1.36.88-2.8.88-4.32 0-1.52-.32-3.04-.88-4.4-.56-1.36-1.36-2.48-2.4-3.52-1.04-1.04-2.16-1.84-3.52-2.4a11.67 11.67 0 00-4.4-.88c-1.52 0-2.96.32-4.32.88-1.36.56-2.56 1.36-3.6 2.4-1.04 1.04-1.84 2.16-2.4 3.52a11.67 11.67 0 00-.88 4.4zm11.201 18.4c-2.56 0-4.96-.48-7.12-1.44-2.24-.96-4.16-2.32-5.84-4-1.68-1.68-3.04-3.6-4-5.84-.96-2.16-1.44-4.56-1.44-7.12 0-2.56.48-4.96 1.44-7.2.96-2.16 2.32-4.08 4-5.84 1.68-1.68 3.6-2.96 5.84-3.92 2.16-.96 4.56-1.44 7.12-1.44 2.56 0 4.96.48 7.2 1.44 2.16.96 4.08 2.24 5.84 3.92 1.68 1.76 2.96 3.68 3.92 5.84.96 2.24 1.44 4.64 1.44 7.2 0 2.56-.48 4.96-1.44 7.12-.96 2.24-2.24 4.16-3.92 5.84-1.76 1.68-3.68 3.04-5.84 4-2.24.96-4.64 1.44-7.2 1.44zM304.96 57.245c0 3.68-.64 6.8-1.92 9.36-1.28 2.64-3.04 4.72-5.2 6.32-2.24 1.6-4.8 2.8-7.76 3.52-2.96.72-6.16 1.12-9.6 1.12v12.72h-17.04v-53.36h17.04c3.44 0 6.64.4 9.6 1.12 2.96.72 5.52 1.92 7.76 3.52 2.16 1.6 3.92 3.68 5.2 6.24 1.28 2.64 1.92 5.76 1.92 9.44zm-7.76 0c0-2.4-.4-4.48-1.2-6.24-.88-1.76-2-3.2-3.52-4.32s-3.28-2-5.28-2.56c-2.08-.56-4.32-.8-6.72-.8h-9.04v40.56h2.08v-12.72h6.96c2.4 0 4.64-.32 6.72-.88 2-.56 3.76-1.36 5.28-2.48 1.52-1.12 2.64-2.56 3.52-4.32.8-1.76 1.2-3.84 1.2-6.24zm-2.24 0c0 2.32-.4 4.24-1.2 5.76-.8 1.52-1.84 2.8-3.2 3.68-1.36.88-2.88 1.52-4.56 1.92-1.76.4-3.6.64-5.52.64h-6.96v-24h6.96c1.92 0 3.76.16 5.52.56 1.68.4 3.2 1.12 4.56 2 1.36.88 2.4 2.16 3.2 3.68.8 1.52 1.2 3.44 1.2 5.76zm-14.48 5.92h.72c2.24 0 3.84-.48 4.88-1.6.96-1.04 1.44-2.48 1.44-4.32 0-1.84-.48-3.36-1.44-4.4-1.04-1.04-2.64-1.52-4.88-1.52h-.72v11.84zM324.961 90.285v-21.28h-2.8v-12.4h2.8v-19.68h14.8c10 0 17.84 2.24 23.36 6.72 5.52 4.48 8.24 11.12 8.24 19.92 0 8.8-2.72 15.44-8.24 19.92-5.52 4.56-13.28 6.8-23.36 6.8h-14.8zm17.04-15.2c4 0 7.12-.96 9.28-2.88 2.16-1.84 3.28-4.72 3.28-8.64 0-3.92-1.12-6.8-3.28-8.64-2.16-1.84-5.28-2.8-9.28-2.8v4.48h7.36v12.4h-7.36v6.08zm-9.04 8.8h6.8c7.84 0 13.76-1.76 17.68-5.36 3.92-3.52 5.92-8.48 5.92-14.96s-2-11.44-5.92-14.96c-3.92-3.52-9.84-5.28-17.68-5.28h-6.8v18.96h-6.72v1.76h6.72v19.84zm2.08-1.92v-17.92h8.96v-1.76h-8.96v-17.04h4.72c6.8 0 12.08 1.52 15.84 4.56 3.76 3.04 5.6 7.6 5.6 13.76s-1.84 10.72-5.6 13.76c-3.76 3.12-9.04 4.64-15.84 4.64h-4.72zM374.561 63.645c0-3.84.72-7.44 2.24-10.88 1.44-3.44 3.44-6.4 6-8.96 2.48-2.48 5.44-4.48 8.88-6 3.44-1.44 7.04-2.16 10.88-2.16 3.84 0 7.44.72 10.88 2.16 3.44 1.52 6.4 3.52 8.96 6 2.48 2.56 4.48 5.52 6 8.96 1.44 3.44 2.16 7.04 2.16 10.88 0 3.84-.72 7.44-2.16 10.88-1.52 3.44-3.52 6.4-6 8.88a27.556 27.556 0 01-8.96 6c-3.44 1.52-7.04 2.24-10.88 2.24-3.84 0-7.44-.72-10.88-2.24-3.44-1.44-6.4-3.44-8.88-6-2.56-2.48-4.56-5.44-6-8.88-1.52-3.44-2.24-7.04-2.24-10.88zm7.52 0c0 2.8.56 5.44 1.6 7.92 1.04 2.48 2.56 4.72 4.4 6.56 1.84 1.84 4.08 3.36 6.56 4.4a20.3 20.3 0 007.92 1.6c2.8 0 5.52-.56 8-1.6 2.48-1.04 4.64-2.56 6.48-4.4 1.84-1.84 3.36-4.08 4.4-6.56a20.3 20.3 0 001.6-7.92c0-2.8-.56-5.44-1.6-8-1.04-2.48-2.56-4.64-4.4-6.48-1.84-1.84-4-3.36-6.48-4.4-2.48-1.04-5.2-1.6-8-1.6s-5.44.56-7.92 1.6a20.562 20.562 0 00-6.56 4.4c-1.84 1.84-3.36 4-4.4 6.48-1.04 2.56-1.6 5.2-1.6 8zm9.28 0c0 1.52.32 2.96.88 4.32.56 1.36 1.36 2.56 2.4 3.6 1.04 1.04 2.24 1.84 3.6 2.4 1.36.56 2.8.88 4.32.88 1.52 0 3.04-.32 4.4-.88 1.36-.56 2.48-1.36 3.52-2.4 1.04-1.04 1.84-2.24 2.4-3.6.56-1.36.88-2.8.88-4.32 0-1.52-.32-3.04-.88-4.4-.56-1.36-1.36-2.48-2.4-3.52-1.04-1.04-2.16-1.84-3.52-2.4a11.67 11.67 0 00-4.4-.88c-1.52 0-2.96.32-4.32.88-1.36.56-2.56 1.36-3.6 2.4-1.04 1.04-1.84 2.16-2.4 3.52a11.67 11.67 0 00-.88 4.4zm11.2 18.4c-2.56 0-4.96-.48-7.12-1.44-2.24-.96-4.16-2.32-5.84-4-1.68-1.68-3.04-3.6-4-5.84-.96-2.16-1.44-4.56-1.44-7.12 0-2.56.48-4.96 1.44-7.2.96-2.16 2.32-4.08 4-5.84 1.68-1.68 3.6-2.96 5.84-3.92 2.16-.96 4.56-1.44 7.12-1.44 2.56 0 4.96.48 7.2 1.44 2.16.96 4.08 2.24 5.84 3.92 1.68 1.76 2.96 3.68 3.92 5.84.96 2.24 1.44 4.64 1.44 7.2 0 2.56-.48 4.96-1.44 7.12-.96 2.24-2.24 4.16-3.92 5.84-1.76 1.68-3.68 3.04-5.84 4-2.24.96-4.64 1.44-7.2 1.44zm3.76-57.44h-7.68l-3.28 6h2l2.32-4.32h5.52l2.4 4.32h2l-3.28-6zm-9.68-3.2h11.68l6.64 12.4h-9.12l-3.36-5.68-3.36 5.68h-9.12l6.64-12.4zm-14.96 0h-2.4l3.92 6h1.68l-3.2-6zm-8.56-3.2h10.56l6.64 12.4h-8.96l-8.24-12.4zM459.842 63.645c0-2.56.48-4.96 1.36-7.2.8-2.24 2.08-4.16 3.68-5.84 1.6-1.68 3.52-2.96 5.84-3.92s4.88-1.44 7.68-1.44c1.36 0 2.64.08 3.76.24 1.04.24 2 .48 2.72.72.88.24 1.68.56 2.32.96l1.12-1.92c-.88-.4-1.76-.72-2.72-1.04-.88-.24-1.92-.48-3.12-.72-1.2-.24-2.56-.32-4.08-.32-2.72 0-5.28.48-7.76 1.44-2.48.96-4.72 2.32-6.56 4.08-1.92 1.84-3.44 4-4.56 6.48-1.2 2.56-1.76 5.36-1.76 8.48s.56 6 1.68 8.48c1.04 2.48 2.56 4.64 4.48 6.4 1.92 1.84 4.16 3.2 6.72 4.16 2.56.96 5.28 1.44 8.16 1.44 1.6 0 3.04-.16 4.32-.4 1.28-.24 2.4-.56 3.28-.88 1.04-.4 1.92-.8 2.72-1.28l-1.12-1.92c-.72.48-1.52.88-2.4 1.2-.8.32-1.76.56-2.88.8-1.12.24-2.4.4-3.92.4-2.96 0-5.6-.48-7.92-1.44-2.32-.96-4.32-2.24-5.92-3.92-1.68-1.68-2.96-3.6-3.76-5.84-.88-2.24-1.36-4.64-1.36-7.2zm-10.08 0c0-4.24.72-8.16 2.24-11.6 1.52-3.44 3.52-6.32 6.08-8.8 2.56-2.48 5.52-4.32 8.96-5.68 3.44-1.28 7.04-1.92 10.88-1.92 3.04 0 5.76.32 8.16.88 2.32.56 4.4 1.28 6.08 2 2 .88 3.68 1.76 5.12 2.8l-8.4 14.8c-.88-.64-1.76-1.28-2.8-1.84-.88-.4-2-.8-3.2-1.28-1.28-.4-2.72-.56-4.32-.56-1.68 0-3.2.32-4.56.88-1.36.56-2.56 1.36-3.6 2.4-1.04 1.04-1.92 2.16-2.48 3.52a11.67 11.67 0 00-.88 4.4c0 1.52.32 2.96.96 4.32.56 1.36 1.44 2.56 2.48 3.6s2.32 1.84 3.76 2.4c1.44.56 3.04.88 4.72.88 1.68 0 3.2-.24 4.56-.64 1.36-.4 2.48-.88 3.36-1.44 1.04-.56 2-1.28 2.8-2.08l8.4 14.8c-1.44 1.2-3.12 2.24-5.12 3.12-1.68.72-3.76 1.44-6.16 2.08-2.4.64-5.12.96-8.24.96-4.16 0-8-.64-11.52-2.08-3.52-1.36-6.56-3.2-9.12-5.68-2.56-2.48-4.56-5.44-6-8.88-1.44-3.44-2.16-7.2-2.16-11.36zM500.081 36.925h17.04v18.16h9.52v-18.16h17.12v53.36h-17.12v-19.76h-9.52v19.76h-17.04v-53.36zm10.08 46.96v-20.24h23.52v20.24h2.08v-40.56h-2.08v18.4h-23.52v-18.4h-2.08v40.56h2.08zM548.162 63.645c0-3.84.72-7.44 2.24-10.88 1.44-3.44 3.44-6.4 6-8.96 2.48-2.48 5.44-4.48 8.88-6 3.44-1.44 7.04-2.16 10.88-2.16 2.8 0 5.52.4 8.16 1.2 2.64.88 5.04 2 7.28 3.44 2.16 1.52 4.16 3.28 5.92 5.28 1.68 2 3.12 4.24 4.24 6.72a6.45 6.45 0 002.8-2c.64-.88 1.04-2.16 1.04-3.68h-5.12v-9.68h10.24v8.16c0 1.52-.24 2.8-.64 3.92s-.96 2.08-1.68 2.88c-.8.8-1.6 1.44-2.56 1.92s-2 .88-3.12 1.12c.96 2.72 1.44 5.6 1.44 8.72 0 3.84-.72 7.44-2.16 10.88-1.52 3.44-3.52 6.4-6 8.88a27.556 27.556 0 01-8.96 6c-3.44 1.52-7.04 2.24-10.88 2.24-3.84 0-7.44-.72-10.88-2.24-3.44-1.44-6.4-3.44-8.88-6-2.56-2.48-4.56-5.44-6-8.88-1.52-3.44-2.24-7.04-2.24-10.88zm7.52 0c0 2.8.56 5.44 1.6 7.92 1.04 2.48 2.56 4.72 4.4 6.56 1.84 1.84 4.08 3.36 6.56 4.4a20.3 20.3 0 007.92 1.6c2.8 0 5.52-.56 8-1.6 2.48-1.04 4.64-2.56 6.48-4.4 1.84-1.84 3.36-4.08 4.4-6.56a20.3 20.3 0 001.6-7.92c0-2.8-.56-5.44-1.6-8-1.04-2.48-2.56-4.64-4.4-6.48-1.84-1.84-4-3.36-6.48-4.4-2.48-1.04-5.2-1.6-8-1.6s-5.44.56-7.92 1.6a20.562 20.562 0 00-6.56 4.4c-1.84 1.84-3.36 4-4.4 6.48-1.04 2.56-1.6 5.2-1.6 8zm20.48 18.4c-2.56 0-4.96-.48-7.12-1.44-2.24-.96-4.16-2.32-5.84-4-1.68-1.68-3.04-3.6-4-5.84-.96-2.16-1.44-4.56-1.44-7.12 0-2.56.48-4.96 1.44-7.2.96-2.16 2.32-4.08 4-5.84 1.68-1.68 3.6-2.96 5.84-3.92 2.16-.96 4.56-1.44 7.12-1.44 2.56 0 4.96.48 7.2 1.44 2.16.96 4.08 2.24 5.84 3.92 1.68 1.76 2.96 3.68 3.92 5.84.96 2.24 1.44 4.64 1.44 7.2 0 2.56-.48 4.96-1.44 7.12-.96 2.24-2.24 4.16-3.92 5.84-1.76 1.68-3.68 3.04-5.84 4-2.24.96-4.64 1.44-7.2 1.44zm-11.2-18.4c0 1.52.32 2.96.88 4.32.56 1.36 1.36 2.56 2.4 3.6 1.04 1.04 2.24 1.84 3.6 2.4 1.36.56 2.8.88 4.32.88 1.52 0 3.04-.32 4.4-.88 1.36-.56 2.48-1.36 3.52-2.4 1.04-1.04 1.84-2.24 2.4-3.6.56-1.36.88-2.8.88-4.32 0-1.52-.32-3.04-.88-4.4-.56-1.36-1.36-2.48-2.4-3.52-1.04-1.04-2.16-1.84-3.52-2.4a11.67 11.67 0 00-4.4-.88c-1.52 0-2.96.32-4.32.88-1.36.56-2.56 1.36-3.6 2.4-1.04 1.04-1.84 2.16-2.4 3.52a11.67 11.67 0 00-.88 4.4zm41.6-23.52h-1.92v3.28h1.92v-3.28zM613.52 36.925h18.08v53.36h-18.08v-53.36zm10.08 46.96v-40.56h-2.08v40.56h2.08zM660.242 50.925h-9.84v-14h37.28v14h-9.84v39.36h-17.6v-39.36zm9.84 32.96v-38.64h11.44v-1.92h-24.96v1.92h11.44v38.64h2.08zM707.122 71.725c2.08 0 4.08-.24 6.08-.64l7.6 12.8h2.48l-8-13.44c2.88-1.04 5.2-2.56 6.88-4.72 1.68-2.08 2.56-4.8 2.56-8.16 0-2.32-.48-4.4-1.36-6.16-.88-1.76-2.16-3.28-3.68-4.48-1.6-1.2-3.44-2.08-5.6-2.72-2.16-.56-4.48-.88-6.96-.88h-8.64v40.56h2.08v-12.16h6.56zm-6.56-1.92v-24.56h6.56c4.88 0 8.64 1.04 11.44 3.2 2.72 2.16 4.08 5.2 4.08 9.12 0 3.92-1.36 6.96-4.08 9.04-2.8 2.16-6.56 3.2-11.44 3.2h-6.56zm-10.08-32.88h18.4c3.44 0 6.56.48 9.52 1.36 2.88.88 5.36 2.24 7.52 4a18.22 18.22 0 015.04 6.48c1.2 2.64 1.76 5.6 1.76 8.96 0 2.64-.4 4.96-1.12 6.8-.72 1.84-1.6 3.44-2.48 4.64-1.04 1.36-2.24 2.56-3.6 3.52l10 17.6h-20l-8-13.52v13.52h-17.04v-53.36zm17.04 26.24h.88c2 0 3.76-.48 5.2-1.36 1.36-.88 2.08-2.4 2.08-4.56 0-2.16-.72-3.68-2.08-4.56-1.44-.88-3.2-1.36-5.2-1.36h-.88v11.84zM737.124 36.925h31.44v14h-14.4v5.92h14.16v13.28h-14.16v6.16h14.96v14h-32v-53.36zm26.08 46.96v-1.92h-16v-17.52h15.2v-1.92h-15.2v-17.28h16v-1.92h-18.08v40.56h18.08zm-18.24-64.32c.32-.08.64-.08.96-.16l.96-.24c1.36-.24 2.72-.4 4.24-.4 1.92 0 3.6.24 4.96.64 1.36.48 2.4 1.04 3.28 1.76.8.8 1.36 1.6 1.76 2.48.4.88.56 1.76.56 2.64 0 1.92-.72 3.44-2.08 4.64-1.44 1.2-3.28 1.76-5.52 1.76v1.92h-5.28v-6.08c.08.08.16.08.32.08h1.44c.88 0 1.68-.24 2.24-.64.56-.4.88-1.04.88-1.84 0-1.6-1.12-2.4-3.36-2.4-1.12 0-2.08.16-2.88.4l-1.2.32-1.28-4.88zm8.56 2.16c.64.16 1.2.4 1.6.8.4.32.8.72 1.2 1.28.32.56.48 1.2.48 2.08 0 .88-.16 1.6-.4 2.16-.32.56-.64.96-.96 1.2-.4.32-.88.56-1.28.72l1.2-.24c.32-.08.64-.24.88-.32.56-.24 1.04-.64 1.44-1.2.4-.48.64-1.2.64-2.16 0-.96-.24-1.76-.72-2.32-.56-.56-1.12-1.04-1.68-1.28-.72-.32-1.52-.56-2.4-.72zM789.922 36.925h31.44v14h-14.4v5.92h14.16v13.28h-14.16v6.16h14.96v14h-32v-53.36zm26.08 46.96v-1.92h-16v-17.52h15.2v-1.92h-15.2v-17.28h16v-1.92h-18.08v40.56h18.08zM826.723 36.925h14.08l13.92 20.48 13.84-20.48h14.08v53.36h-17.04v-19.2l-10.88 16-10.96-16v19.2h-17.04v-53.36zm10.08 46.96v-36.72l17.92 26.08 17.84-26.08v36.72h2.08v-40.56h-2.08l-17.84 26.32-17.92-26.32h-2.08v40.56h2.08z"/>
  <g>
    <path fill="defaultColor" d="M273.506 214.851l-.741-.586c-3.824-3.167-6.663-7.433-8.089-13.869-1.3-5.866-.96-15.714-1.573-31.951-.3-7.929 5.277-14.871 13.084-16.295a176.949 176.949 0 0131.319-2.814c52.814 0 96.072 21.005 126.748 60.537a15.94 15.94 0 013.2 11.932l-4.271 31.314a15.938 15.938 0 01-5.377 9.91c-3.838 3.315-8.133 6.499-12.9 9.597 3.77 1.583 6.385 3.377 8.139 5 7.25 6.989 13.003 17.52 15.72 24.275 2.027 5.035 2.534 9.004 2.534 10.548 0 2.557-.638 6.812-3.839 11.732-4.249 6.539-16.813 19.16-41.338 28.466-33.011 12.832-64.524 17.878-83.775 17.878-12.997 0-20.29-4.556-22.966-7.483a18.314 18.314 0 01-2.282-3.065l-1.212.61a15.955 15.955 0 01-13.658.285 15.946 15.946 0 01-8.87-10.389c-3.191-11.812-4.512-23.619-4.535-35.426-4.144-4.972-5.41-9.38-5.41-13.14 0-10.997 2.803-19.836 5.838-24.41.447-.678.91-1.304 1.393-1.89a884.274 884.274 0 0112.86-60.766zm19.197-10.57a866.53 866.53 0 00-17.364 79.987c-3.416.284-5.978 7.683-5.978 17.65 0 1.988 1.992 3.696 5.409 6.544v6.265c0 10.53 1.138 21.062 3.985 31.593l11.955-5.975c1.993-9.392 3.7-20.213 5.409-31.883 15.943-1.993 29.607-2.848 40.992-2.848 19.069 0 35.01 1.424 48.674 6.265-8.538 7.399-26.758 14.803-53.23 18.79 0-3.702-1.14-5.98-2.563-5.98-11.101 0-29.319 20.213-29.319 26.472 0 1.993 3.986 3.417 11.674 3.417 17.93 0 47.25-4.841 77.994-16.796 24.764-9.392 35.01-21.916 35.01-25.333 0-2.278-5.404-15.657-13.378-23.34-3.697-3.418-19.923-6.55-48.674-8.543 23.625-9.677 41.56-18.784 54.085-29.606l4.271-31.307c-27.612-35.586-66.615-54.375-114.15-54.375-9.393 0-19.072.854-28.465 2.563 1.138 30.174-2.278 36.155 13.663 36.44zm7.686 64.045l15.37-64.33h4.271c23.056 0 40.99 6.259 52.66 17.075l-72.301 47.255zm27.883-48.07l-3.059 12.792 16.335-10.673c-4.095-1.037-8.526-1.749-13.276-2.119z"/>
    <path fill="#cd3ca2" fill-rule="nonzero" d="M292.703 204.28a866.53 866.53 0 00-17.364 79.988c-3.416.284-5.978 7.683-5.978 17.65 0 1.988 1.992 3.696 5.409 6.544v6.265c0 10.53 1.138 21.062 3.985 31.593l11.955-5.975c1.993-9.392 3.7-20.213 5.409-31.883 15.943-1.993 29.607-2.848 40.992-2.848 19.069 0 35.01 1.424 48.674 6.265-8.538 7.399-26.758 14.803-53.23 18.79 0-3.702-1.14-5.98-2.563-5.98-11.101 0-29.319 20.213-29.319 26.472 0 1.993 3.986 3.417 11.674 3.417 17.93 0 47.25-4.841 77.994-16.796 24.764-9.392 35.01-21.916 35.01-25.333 0-2.278-5.404-15.657-13.378-23.34-3.697-3.418-19.923-6.55-48.674-8.543 23.625-9.677 41.56-18.784 54.085-29.606l4.271-31.307c-27.612-35.586-66.615-54.375-114.15-54.375-9.393 0-19.072.854-28.465 2.563 1.138 30.174-2.278 36.155 13.663 36.44zm7.686 64.046l15.37-64.33h4.271c23.056 0 40.99 6.259 52.66 17.075l-72.301 47.255z"/>
    <path fill="defaultColor" d="M479.664 222.204l1.31-1.304a15.943 15.943 0 0111.271-4.67c1.948 0 4.471.313 7.405 1.64.643.285 1.44.729 2.392 1.327.45-.2.843-.359 1.184-.473 2.5-.866 4.557-1.076 6.1-1.076 2.261 0 6.385.535 11.323 3.673 5.969 3.8 18.152 14.996 29.884 35.74a15.93 15.93 0 01.78 14.13c-4.42 10.314-5.826 23.625-5.826 39.834 0 27.896 4.836 42.984 4.836 45.547 0 6.811-4.027 17.086-17.657 17.086-1.395 0-7.814-1.89-20.372-5.035-4.79-1.196-7.484-2.705-9.54-4.283-2.768-2.124-4.779-4.676-7.593-10.707-.028-.052-.05-.109-.08-.165L489.438 341c-16.13 11.391-26.922 18.414-32.06 21.187-5.33 2.876-9.164 3.213-10.673 3.213-10.935 0-23.636-8.692-23.636-33.598 0-24.872 11.875-53.6 37.778-86.548l.091-.587c.94-4.494 2.973-8.594 6.35-11.733l12.377-10.73zm16.283 94.516l13.664 30.17c1.993 4.27 1.993 5.125 6.55 6.264 10.246 2.563 15.372 4.557 16.505 4.557 1.14 0 1.71-.57 1.71-1.14 0-2.562-4.836-17.65-4.836-45.546 0-18.79 1.993-34.162 7.113-46.116-12.24-21.632-24.479-31.314-27.327-31.314-1.139 0-3.987 1.709-9.107 3.987-4.272-3.417-6.835-5.405-7.974-5.405l-1.703 1.703-12.814 11.106c-.564.57-1.134 1.709-1.134 2.848 0 .854.285 1.703.57 2.557-25.624 31.314-38.149 58.07-38.149 81.411 0 11.676 2.563 17.65 7.69 17.65 2.277 0 19.068-10.815 49.242-32.732zm-14.517-50.957l5.41 19.928-29.89 25.903c4.841-18.22 13.949-34.446 24.48-45.831z"/>
    <path fill="#b8df4a" fill-rule="nonzero" d="M495.947 316.72l13.664 30.17c1.993 4.27 1.993 5.125 6.55 6.264 10.246 2.563 15.372 4.557 16.505 4.557 1.14 0 1.71-.57 1.71-1.14 0-2.562-4.836-17.65-4.836-45.546 0-18.79 1.993-34.162 7.113-46.116-12.24-21.632-24.479-31.314-27.327-31.314-1.139 0-3.987 1.709-9.107 3.987-4.272-3.417-6.835-5.405-7.974-5.405l-1.703 1.703-12.814 11.106c-.564.57-1.134 1.709-1.134 2.848 0 .854.285 1.703.57 2.557-25.624 31.314-38.149 58.07-38.149 81.411 0 11.676 2.563 17.65 7.69 17.65 2.277 0 19.068-10.815 49.242-32.732zm-14.517-50.957l5.41 19.928-29.89 25.903c4.841-18.22 13.949-34.446 24.48-45.831z"/>
    <path fill="defaultColor" d="M593.358 346.417c-3.64 6.555-7.439 13.817-11.385 21.785a15.955 15.955 0 01-11.386 8.606l-15.372 2.842c-4.283.797-8.708-.2-12.24-2.751a15.957 15.957 0 01-6.464-10.748c-1.219-8.868-1.857-19.267-1.857-31.501 0-26.034 3.28-51.772 9.563-77.51a15.983 15.983 0 017.324-9.91c14.575-8.697 23.523-14.358 27.265-16.283 4.454-2.296 7.689-2.478 9.09-2.478 2.546 0 5.057.25 7.603 1.1l6.465 2.158c8.48 2.42 11.733 8.27 12.667 13.299a14.076 14.076 0 012.021-.023c9.689.524 20.26 2.865 32.203 6.687 10.371-6.79 19.49-8.988 23.864-8.988 6.556 0 18.345 2.45 32.185 9.37a15.944 15.944 0 017.997 9.22c2.267 6.795 3.662 13.612 3.662 20.413 0 22.787-5.354 43.627-9.21 51.92-3.2 6.88-7.705 9.904-10.098 10.992-.165.068-.33.142-.49.21l-4.88 2.022a58.06 58.06 0 01-2.603 5.4 15.928 15.928 0 01-9.62 7.7l-17.93 5.12a15.943 15.943 0 01-20.093-18.066c.433-2.5.774-5.006 1.008-7.53-4.62 4.227-8.988 7.473-12.764 9.774-7.353 4.483-13.675 5.906-17.508 5.906-7.307 0-14.187-2.602-19.017-8.736zm-33.644-85.49c-5.98 24.48-9.112 48.959-9.112 73.723 0 11.385.57 21.067 1.708 29.32l15.372-2.848c14.518-29.32 27.328-49.528 37.289-60.913-1.709 9.677-2.557 16.796-2.557 21.347 0 11.67 3.411 17.65 9.961 17.65 6.83 0 26.758-13.094 42.13-40.705 3.411 9.676 4.55 19.922 4.55 31.313 0 6.83-.569 13.379-1.702 19.923l17.93-5.12c1.708-3.133 3.132-6.55 3.701-9.683l11.67-4.835c3.133-1.424 9.962-23.63 9.962-48.394 0-5.126-1.14-10.247-2.842-15.372-10.822-5.405-19.929-7.684-25.055-7.684-3.696 0-11.955 3.133-21.062 10.816-13.663-4.841-25.334-7.968-35.865-8.537-9.112 9.107-17.65 18.783-24.77 30.738.57-29.036 7.974-41.56 7.974-43.263 0-.57-.57-1.139-1.708-1.424l-6.835-2.278c-.854-.285-1.703-.285-2.557-.285-1.424 0-10.537 5.975-28.182 16.512z"/>
    <path fill="#f0844f" fill-rule="nonzero" d="M559.714 260.928c-5.98 24.479-9.112 48.958-9.112 73.722 0 11.385.57 21.067 1.708 29.32l15.372-2.848c14.518-29.32 27.328-49.528 37.289-60.913-1.709 9.677-2.557 16.796-2.557 21.347 0 11.67 3.411 17.65 9.961 17.65 6.83 0 26.758-13.094 42.13-40.705 3.411 9.676 4.55 19.922 4.55 31.313 0 6.83-.569 13.379-1.702 19.923l17.93-5.12c1.708-3.133 3.132-6.55 3.701-9.683l11.67-4.835c3.133-1.424 9.962-23.63 9.962-48.394 0-5.126-1.14-10.247-2.842-15.372-10.822-5.405-19.929-7.684-25.055-7.684-3.696 0-11.955 3.133-21.062 10.816-13.663-4.841-25.334-7.968-35.865-8.537-9.112 9.107-17.65 18.783-24.77 30.738.57-29.036 7.974-41.56 7.974-43.263 0-.57-.57-1.139-1.708-1.424l-6.835-2.278c-.854-.285-1.703-.285-2.557-.285-1.424 0-10.537 5.975-28.182 16.512z"/>
    <path fill="defaultColor" d="M726.684 214.851l-.746-.586c-3.822-3.167-6.658-7.433-8.088-13.869-1.298-5.866-.956-15.714-1.572-31.951-.296-7.929 5.28-14.871 13.083-16.295a176.96 176.96 0 0131.32-2.814c52.814 0 96.072 21.005 126.748 60.537a15.94 15.94 0 013.2 11.932l-4.271 31.314a15.938 15.938 0 01-5.377 9.91c-3.833 3.315-8.133 6.499-12.9 9.597 3.77 1.583 6.385 3.377 8.139 5 7.25 6.989 13.003 17.52 15.72 24.275 2.027 5.035 2.534 9.004 2.534 10.548 0 2.557-.638 6.812-3.839 11.732-4.249 6.539-16.813 19.16-41.338 28.466-33.011 12.832-64.524 17.878-83.775 17.878-12.997 0-20.288-4.556-22.964-7.483a18.358 18.358 0 01-2.284-3.065l-1.214.61a15.949 15.949 0 01-22.526-10.104c-3.189-11.812-4.51-23.619-4.533-35.426-4.146-4.972-5.41-9.38-5.41-13.14 0-10.997 2.802-19.836 5.837-24.41a21.37 21.37 0 011.396-1.89 883.259 883.259 0 0112.86-60.766zm19.194-10.57a868.203 868.203 0 00-17.366 79.987c-3.411.284-5.974 7.683-5.974 17.65 0 1.988 1.993 3.696 5.405 6.544v6.265c0 10.53 1.139 21.062 3.987 31.593l11.955-5.975c1.993-9.392 3.702-20.213 5.41-31.883 15.942-1.993 29.606-2.848 40.99-2.848 19.07 0 35.011 1.424 48.675 6.265-8.538 7.399-26.758 14.803-53.23 18.79 0-3.702-1.14-5.98-2.563-5.98-11.101 0-29.315 20.213-29.315 26.472 0 1.993 3.98 3.417 11.67 3.417 17.93 0 47.25-4.841 77.994-16.796 24.764-9.392 35.01-21.916 35.01-25.333 0-2.278-5.405-15.657-13.378-23.34-3.697-3.418-19.923-6.55-48.674-8.543 23.625-9.677 41.56-18.784 54.084-29.606l4.272-31.307c-27.612-35.586-66.609-54.375-114.15-54.375-9.391 0-19.074.854-28.466 2.563 1.14 30.174-2.278 36.155 13.664 36.44zm7.689 64.045l15.366-64.33h4.272c23.056 0 40.99 6.259 52.66 17.075l-72.298 47.255zm27.88-48.07l-3.059 12.792 16.335-10.673c-4.09-1.037-8.526-1.749-13.277-2.119z"/>
    <path fill="#ea392d" fill-rule="nonzero" d="M745.878 204.28a868.203 868.203 0 00-17.366 79.988c-3.411.284-5.974 7.683-5.974 17.65 0 1.988 1.993 3.696 5.405 6.544v6.265c0 10.53 1.139 21.062 3.987 31.593l11.955-5.975c1.993-9.392 3.702-20.213 5.41-31.883 15.942-1.993 29.606-2.848 40.99-2.848 19.07 0 35.011 1.424 48.675 6.265-8.538 7.399-26.758 14.803-53.23 18.79 0-3.702-1.14-5.98-2.563-5.98-11.101 0-29.315 20.213-29.315 26.472 0 1.993 3.98 3.417 11.67 3.417 17.93 0 47.25-4.841 77.994-16.796 24.764-9.392 35.01-21.916 35.01-25.333 0-2.278-5.405-15.657-13.378-23.34-3.697-3.418-19.923-6.55-48.674-8.543 23.625-9.677 41.56-18.784 54.084-29.606l4.272-31.307c-27.612-35.586-66.609-54.375-114.15-54.375-9.391 0-19.074.854-28.466 2.563 1.14 30.174-2.278 36.155 13.664 36.44zm7.689 64.046l15.366-64.33h4.272c23.056 0 40.99 6.259 52.66 17.075l-72.298 47.255z"/>
    <path fill="defaultColor" d="M915.747 254.685l-14.205-9.073a15.949 15.949 0 01-7.205-11.18 15.958 15.958 0 013.776-12.746s19.644-22.492 19.735-22.594c5.946-6.687 17.195-10.861 36.52-15.691a15.943 15.943 0 0118.385 8.868l7.114 15.657a15.95 15.95 0 01-3.674 18.293c-5.234 4.853-10.406 9.637-15.583 14.296 1.863 1.162 3.845 2.984 5.97 5.82l4.84 6.26c.228.296.445.598.65.906 2.067 3.098 3.537 7.108 3.537 12.262 0 4.05-7.957 32.982-12.872 88.792a15.977 15.977 0 01-6.71 11.642l-7.689 5.405a15.936 15.936 0 01-15.543 1.583s-17.65-7.689-17.417-7.586c-7.25-3.024-11.892-7.313-15.742-16.306-1.185-2.751-2.324-6.277-3.674-10.867l-1.885-.08c-8.43-.359-15.121-7.222-15.264-15.662l-.284-16.506c-.006-.097-.006-.188-.006-.279 0-1.674.222-3.292.41-4.346.182-1.412.672-3.428 1.914-5.843 1.828-3.554 11.624-19.763 26.808-34.367 2.518-2.397 5.257-4.619 8.094-6.658zm23.414 103.88l7.689-5.41c4.835-54.94 12.81-83.405 12.81-87.392 0-1.424-.286-2.563-.855-3.412l-4.841-6.265c-.855-1.139-1.14-1.708-1.71-1.708-1.708 0-21.061 6.55-33.585 18.504-14.803 14.233-23.916 30.175-23.916 30.744 0 .28-.285.85-.285 2.273l.285 16.511 13.379.57c5.41 19.074 6.55 25.048 13.379 27.896l17.65 7.689zm19.074-159.695c-14.802 3.702-23.915 5.695-28.466 10.815l-19.644 22.492 20.498 13.094c11.67-9.398 23.056-19.929 34.726-30.744l-7.114-15.657z"/>
    <path fill="#fae14b" fill-rule="nonzero" d="M958.235 198.87c-14.802 3.702-23.915 5.695-28.466 10.815l-19.644 22.492 20.498 13.094c11.67-9.398 23.056-19.929 34.726-30.744l-7.114-15.657zm-19.074 159.695l7.689-5.41c4.835-54.94 12.81-83.405 12.81-87.392 0-1.424-.286-2.563-.855-3.412l-4.841-6.265c-.855-1.139-1.14-1.708-1.71-1.708-1.708 0-21.061 6.55-33.585 18.504-14.803 14.233-23.916 30.175-23.916 30.744 0 .28-.285.85-.285 2.273l.285 16.511 13.379.57c5.41 19.074 6.55 25.048 13.379 27.896l17.65 7.689z"/>
    <g fill="defaultColor" fill-rule="nonzero">
      <path d="M108.607 193.22c.597.93 1.325 1.99 1.828 2.628.458.535 1.26 1.949 1.872 3.133.573 1.185 1.452 2.522 1.987 3.019.535.496 1.3 1.605 1.681 2.483.382.88 1.108 1.873 1.605 2.178 1.49.955 5.158 4.585 5.426 5.311.267.84-.497 2.446-1.796 3.668-.573.497-1.07 1.529-1.223 2.408-.153.84-.382 1.413-.497 1.299-.65-.688-2.407 4.508-3.171 9.323-.19 1.334-.533 2.555-.725 2.673l-.002.002c-.192.12-.802 1.492-1.336 3.018-.535 1.528-1.605 3.973-2.331 5.387-1.567 2.98-2.025 5.693-2.063 12.265 0 6.649-.42 8.368-2.98 12.113-4.05 5.998-5.388 8.29-5.656 9.743-.152.802-.65 2.063-1.146 2.79-.497.725-1.146 2.483-1.452 3.935-.688 3.247-2.407 7.03-4.088 9.017-1.49 1.72-6.725 6.954-7.833 7.87-.42.307-1.07.689-1.452.842-.611.229-.688.573-.497 2.369.191 2.063.191 2.14-.955 2.712-.993.497 120.053 11.348 120.053 9.82 0-.802-.23-1.375-.573-1.49-.382-.153-.573-.764-.573-1.758 0-.84-.191-1.834-.382-2.254-.994-1.834-2.904-11.119-3.63-17.538-.42-3.744-2.331-12.456-3.324-15.284-.88-2.407-3.86-6.877-4.586-6.877-.878 0-5.31-2.407-5.807-3.172-.956-1.413-1.3-5.043-1.338-13.067 0-8.444-.152-9.208-2.56-13.984-1.375-2.675-1.68-5.044-.802-6.19.382-.535 2.675-2.37 5.77-4.624 1.604-1.184 3.324-4.394 2.33-10.354-.993-5.96.191-6.801.344-8.597.306-3.019.23-3.324-.535-4.28-.917-1.222-2.33-1.375-4.7-.535-1.986.726-5.578 3.592-5.845 4.662-.115.497-.344.84-.497.726-.42-.23-1.834 2.483-2.102 4.012-.114.726-.305 1.872-.458 2.483-.115.65-.344 2.637-.497 4.47-.458 5.006-1.375 5.961-6.534 6.802-4.164.688-14.443.038-17.003-1.108-.993-.42-2.101-.802-2.445-.802-.382 0-1.49-.994-2.56-2.178-1.796-2.102-1.872-2.255-1.987-4.891l-.115-2.675 2.178-2.216c1.72-1.72 2.37-2.178 3.019-2.025.458.115 1.414.038 2.14-.19.726-.192 2.56-.536 4.088-.727 5.196-.688 8.635-3.439 10.049-8.1.879-2.98.879-3.515 0-5.502-.611-1.3-1.032-1.681-2.751-2.331-1.146-.42-2.79-.993-3.668-1.223-2.942-.802-3.439-2.674-1.834-6.533.917-2.178.955-2.446.573-5.732-.306-2.713-.688-3.935-1.758-6.075l-1.413-2.636.458-3.401c.459-3.592.497-9.82.077-11.768-.115-.65-.23-2.675-1.91-3.401-1.224-.573-1.644-.611-2.37-.191-1.566.802-3.706 3.171-4.012 3.477-.306.306-1.337.688-1.872 1.223-1.72 1.72-3.897 2.483-11.463 4.012-8.062 1.68-9.476 2.178-12.8 4.585-.915.648-1.906 1.182-2.29 1.184h-.004c-.345.002-1.108.536-1.718 1.146-.802.841-1.452 1.147-2.369 1.147-1.108 0-1.72-.42-4.165-2.942-1.604-1.643-3.133-3.44-3.438-3.974-1.223-2.37-6.534-5.12-10.737-5.54-1.605-.153-1.681-.115-3.019 1.91-.726 1.146-1.413 2.484-1.49 2.98a76.775 76.775 0 01-.573 2.79c-.611 2.865-.573 7.794.115 10.163.305 1.108.687 2.713.802 3.515.153.803.726 1.91 1.376 2.56.611.65 1.222 1.567 1.375 2.064.15.673 2.022 2.516 3.55 3.716l-.111-.048c1.987 1.452 4.203 3.095 4.89 3.515 0 0 2.14 1.681 3.096 1.796.655.078 1.74.444 2.358.667.299.153.562.353.78.602zm6.986 81.491c0-.343.726-1.375 1.643-2.292.879-.917 2.598-2.675 3.821-3.936 1.184-1.26 2.178-2.56 2.178-2.865 0-.956 3.018-2.522 5.387-2.79 2.14-.229 2.14-.229 3.936 1.452 1.605 1.529 1.758 1.873 1.758 3.477 0 .994-.306 2.408-.726 3.21s-.917 2.675-1.147 4.126c-.382 2.752-.573 3.707-1.146 6.687-.191.955-.497 3.553-.65 5.846-.152 2.254-.42 4.203-.573 4.318-.458.267-.42 1.948.039 2.254.229.153.152.726-.192 1.605-.305.726-.573 2.178-.573 3.21 0 .993-.19 2.292-.42 2.903-.267.573-.573 1.758-.688 2.56-.015.11.35 3.296-.668 3.214-5.387-.436-21.954-1.978-33.408-3.097-1.065-.103-.77-1.53-.465-1.836.535-.535.153-1.987-.458-1.72-.268.077.382-.726 1.49-1.795 1.07-1.109 2.636-2.828 3.477-3.86.84-1.031 2.063-2.521 2.713-3.247.65-.764 2.407-2.904 3.935-4.815 3.248-4.05 6.84-8.138 9.132-10.392l1.605-2.217zm47.881-12.035c1.756.005 3.358 2.602 4.045 6.457.306 1.796.688 2.79 1.49 3.63.612.65 1.376 1.643 1.72 2.178.382.687 1.146 1.146 2.33 1.452.956.229 1.758.61 1.758.802 0 .42 1.146 1.07 2.178 1.26 1.414.23 3.095 1.491 6.648 4.93 2.828 2.75 3.783 3.974 4.356 5.464.382 1.07 1.108 2.522 1.605 3.247.458.725.877 1.526.879 1.795v.003c.002.27.498 1.261 1.146 2.253.611.993 1.223 2.56 1.376 3.477.152.993.611 2.063 1.146 2.598.458.458.993 1.528 1.146 2.33.115.841.497 2.026.84 2.637 1.032 2.025 1.223 2.484 1.223 2.598 0 .344-2.516 3.274-2.516 3.274l-61.975-4.904 2.593-2.764c.535-.535 2.14-1.414 3.63-1.987 2.521-.993 5.96-3.286 8.176-5.425.535-.535 2.56-2.37 4.47-4.089 5.083-4.623 10.623-11.004 12.037-13.946.65-1.375.726-1.834.344-2.942-.23-.688-.688-1.49-1.032-1.796-2.063-1.681-2.79-7.527-1.376-10.698.65-1.452 1.032-1.834 1.758-1.834h.005zm-19.912 20.556c-.726-.726-.573-2.866.306-3.744.993-.994 3.63-1.07 3.974-.115.152.344-.115 1.414-.65 2.369-.688 1.414-1.108 1.796-2.025 1.872-.611.077-1.337-.115-1.605-.382zm11.463-7.374c-.23-.306-.688-.459-.955-.344-.688.229-4.356-3.706-4.7-5.044-.382-1.49.535-5.731 1.796-8.177.573-1.146 1.222-2.56 1.452-3.133.19-.573.84-1.337 1.375-1.68 2.102-1.376 5.54.916 5.54 3.667 0 1.338-1.031 5.044-1.451 5.311-.23.115-.574.955-.841 1.834-.382 1.261-.382 1.758-.038 2.178.267.306.573 1.49.688 2.598.152 1.643.076 2.217-.459 2.713-.764.803-1.758.803-2.407.077zm-39.814-8.368c-.344-.459-.344-1.567 0-4.89.535-5.503.955-7.031 2.101-7.795 2.217-1.452 4.853.343 5.885 4.011.458 1.529.42 1.758-.306 2.752-.459.61-.802 1.184-.802 1.337 0 .153-.306.497-.65.764-.382.267-.688.65-.688.879 0 .611-3.63 3.477-4.394 3.477-.382 0-.879-.268-1.146-.535zm15.093-6.266c-.65-.459-3.898-4.738-4.51-6-.305-.61-1.871-2.406-3.476-3.973-1.605-1.566-3.133-3.171-3.324-3.592-.535-.993-.191-2.712.878-4.203 1.147-1.566 1.109-4.088-.038-6.457-.917-1.91-1.07-4.05-.65-9.246.23-3.057.918-4.738 3.172-7.719.459-.65 1.07-1.719 1.3-2.407.687-1.948 3.476-3.095 7.412-3.057 3.477.039 5.846.612 6.457 1.605.344.535.038 1.414-1.566 4.585-1.07 2.14-2.064 4.356-2.178 4.891-.115.535-.574 1.796-1.032 2.866-.802 1.757-.84 2.369-.802 9.246.038 4.509.229 7.68.496 8.177.268.497.268.688.038.535-.458-.267-.267 1.834.383 4.05.61 2.025.229 10.202-.497 10.66-.65.42-1.529.42-2.063.039zm19.868-58.995l-1.07-.84.88-.688c.458-.382 1.184-.688 1.604-.688 2.102 0 3.057 1.987 1.223 2.675-1.338.534-1.414.496-2.637-.459zm-21.626-4.7c-1.261-.687-1.681-1.72-2.293-5.273-.382-2.254-.382-3.21-.038-4.394.268-.84.459-2.063.459-2.712 0-1.643 1.337-4.51 2.789-6.076 1.414-1.452 4.661-2.56 6.534-2.216 1.26.23 3.859 2.637 6.304 5.846 1.032 1.376 1.146 1.72.803 2.407-.344.612-.306 1.3.038 2.675.535 2.102.076 3.82-.994 3.82-.458 0-.573-.534-.573-2.597 0-2.56-.038-2.637-1.605-4.203-1.834-1.758-4.203-2.751-6.648-2.751-1.337 0-1.758.153-2.101.878-.268.459-.841 1.185-1.3 1.643-.458.42-1.146 1.758-1.528 2.943-.611 1.91-.611 2.33-.153 3.21.306.534.955 1.26 1.452 1.604.84.535.955.535 1.338-.115 1.222-2.063 1.872-2.56 3.018-2.445.917.076 1.3.382 1.567 1.146.305.879.229 1.223-.535 2.025-.535.573-1.3.955-1.987.955-.612 0-1.146.23-1.223.497-.076.23-.306 1.146-.458 1.987-.382 1.72-1.223 2.063-2.866 1.146zm-20.284-4.856l.045.071-.033-.01-.037-.103.025.042zm-7.112-5.842c.611-.535 1.605-1.07 2.14-1.185 3.782-.802 4.394-1.222 4.814-3.21.306-1.413 1.108-2.368 1.796-2.1.726.267 1.872 2.56 1.872 3.706 0 1.834-.993 4.011-2.56 5.54-.683.626-1.26 1.252-1.51 1.578l-.018-.05c-.243.382-1.02.07-.962-.36 1.652-2.48 1.163-4.58-3.274-1.472l-.005-.002-.001.006v.001l-.008.005-.042.03a1.518 1.518 0 01-.275.072l.02-.037c-.306.076-.65 0-.994-.191l.05.063c-1.006-.752-1.856-1.675-1.043-2.394zm1.053 2.732l.023.005.457.38-.008-.005-.013-.009-.46-.37zm-2.36-1.895c.08-.035.567.636.567.636.022.03.31-.384.334-.353l-.9-.283z"/>
      <path d="M104.45 372.79c.409.006.824.104 1.209.31 1.337.725 1.26 3.362-.153 4.279a1.38 1.38 0 01-.756.23l-.037.001c-1.26.008-2.875-1.296-2.875-2.6 0-1.274 1.25-2.219 2.571-2.22h.041zm6.176-68.849c-.917 0-1.91.994-1.91 1.949 0 .917 1.146 3.477 2.75 6.152 2.14 3.591 3.363 6.151 3.363 7.068 0 1.024-1.542 2.762-2.462 2.79h-.022c-1.375 0-4.7-1.758-6.533-3.478-1.032-.955-2.484-2.063-3.172-2.407-.59-.315-.928-.468-1.23-.463-.286.004-.54.147-.948.425l-.046.03-.046.03-.045.03-.045.033-.044.033-.042.033-.042.034-.042.035-.04.036-.04.035-.038.036v.001l-.037.036h-.001l-.02.02-.016.017-.019.02-.016.017-.018.02-.016.016-.017.021-.015.017-.017.02-.013.016-.017.02-.012.017-.016.02-.012.016-.015.02-.01.015-.015.021-.009.013v.002l-.014.02-.008.014-.001.001-.012.02-.008.013v.001l-.011.02-.008.013v.001l-.01.019-.006.012-.001.002-.008.018-.006.012v.002l-.008.018-.005.012v.001l-.006.017-.004.012v.002l-.005.015-.004.012v.002l-.003.014-.003.013v.001l-.002.014-.001.011-.001.014v.022l-.001.008v.014l-.003.015-.002.017-.002.015-.004.018-.003.015-.005.02-.004.014-.007.021-.005.015-.007.022-.006.016-.009.023-.007.015-.01.024-.007.016-.012.025-.007.017-.013.025-.009.017-.013.026-.01.017-.014.027-.01.017-.016.027-.011.018-.017.027-.011.019-.018.027-.013.019-.018.027-.013.02-.019.027-.014.02-.019.027-.015.02-.02.028-.016.02-.02.027-.017.022-.02.026-.038.047-.04.048-.04.048-.042.047-.042.047-.043.046-.044.046-.045.046-.045.045-.046.044-.046.043-.917.841-1.643-.764c-.9-.45-1.485-.705-1.921-.73l-.05-.003c-.605-.011-.921.443-1.43 1.459-.802 1.528-1.948 2.292-3.553 2.292-.494 0-2.229-1.5-5.233-4.503l-.575-.578c-3.946-4.086-5.912-5.806-8.19-6.823l-.063-.055-.01.023c-.832-.365-1.709-.639-2.74-.902-2.866-.688-4.242-.497-8.101 1.223-1.843.827-5.278 3.987-6.223 5.653l-.043.078c-.574 1.185-2.79 1.605-10.355 1.872-6.725.268-11.501.956-12.533 1.796-.802.688-1.337 2.255-.878 2.713.229.23 1.528.764 2.903 1.261 3.783 1.337 4.891 2.178 6.267 4.7.993 1.872 1.184 2.674 1.184 4.814 0 2.751-.42 4.509-2.713 11.233-1.68 4.853-1.834 6.763-.802 9.935.65 2.178 1.758 3.477 5.884 7.107 1.681 1.452 1.758 1.643 2.025 4.203.112 1.2.244 2.032.439 2.593.076.287.15.492.21.578.13.146.281.255.448.328.177.092.382.13.623.13.398 0 .747-.163 1.042-.474.075-.065.148-.136.219-.213.162-.183.346-.625.5-1.176.108-.362.193-.773.256-1.23.018-.128.034-.256.046-.384.115-1.146.306-2.827.458-3.668.344-2.101-.458-3.438-3.935-6.763-2.828-2.674-2.904-2.827-3.057-4.852-.19-2.063.077-3.019 2.14-8.941.458-1.26.993-2.598 1.184-2.942 1.07-1.872.039-10.508-1.566-13.22-1.07-1.834-.955-3.783.19-4.318.3-.134.557-.21.84-.212.441-.003.944.175 1.76.594 3.094 1.49 3.973 2.254 5.463 4.47.802 1.261 1.681 2.446 1.91 2.637.268.23.765 1.26 1.147 2.292.879 2.56 2.713 6.267 3.515 7.146.44.494.939.71 1.418.707h.04c1.207-.04 2.28-1.47 1.98-3.344-.152-.802-.61-1.872-1.03-2.407-.421-.535-1.185-1.605-1.72-2.369-.497-.764-1.376-1.643-1.949-1.91-2.484-1.185-3.439-4.738-1.643-6.076 2.79-2.101 2.942-2.292 3.21-3.897.573-3.63 2.789-5.005 8.024-5.044 4.05 0 4.546.268 8.75 4.51 3.056 3.132 3.706 4.431 3.553 7.335-.091 2.101.327 2.989 1.506 2.992h.07c.285-.008.611-.064.984-.164.688-.191 2.483-.382 3.974-.459.415-.014.774-.022 1.088-.02 1.36.006 1.868.18 2.427.708 1.07.955.879 2.904-.573 6.152-3.057 6.8-5.502 16.238-5.006 19.028.306 1.68 1.873 3.21 3.592 3.515.223.046.49.068.787.069h.082c1.433-.014 3.546-.501 5.13-1.215.65-.306 2.445-1.07 4.012-1.758 5.807-2.522 14.252-9.4 17.843-14.481 3.248-4.662 3.668-5.808 3.86-10.317.152-3.744.076-4.317-1.07-7.832-.688-2.102-2.064-5.35-3.095-7.298-2.064-3.821-2.37-5.617-1.108-6.305.42-.23 2.598-.573 4.852-.802l.242-.025c1.654-.17 3.177-.377 3.955-.548.71-.124 1.293-.245 1.65-.344.916-.306 1.871-.382 2.1-.191.215.174 2.47.443 5.845.76 2.234.32 5.825.797 8.178.92 3.943.187 10.913.634 17.608 1.12 3.333.25 6.246.47 8.298.639 2.637.229 5.655.458 6.687.534 3.72.255 8.461.799 11.92 1.326 1.478.24 2.837.497 4.028.766.607.186 1.222.317 1.492.373l.098.019c1.68.42 3.859.802 4.89.802 2.025 0 3.516.612 4.7 1.91.356.39.904.833 1.319 1.075.493.329 1.095.661 1.818 1.012 2.46 1.522 6.317 4.302 7.35 5.378l.059.063c1.643 1.796 2.904 4.356 3.859 7.795.802 2.98.879 3.897.84 12.188-.038 7.527-.152 9.209-.687 10.202-.344.688-.612 2.14-.612 3.324 0 2.422-.403 3.128-2.993 3.144h-.152a32.75 32.75 0 01-2.013-.087 30.92 30.92 0 00-2.034-.077h-.413c-1.37.008-2.701.1-3.704.268-7.648 1.29-23.679 4.511-35.717 7.15-3.45.755-6.555 1.46-9.012 2.05l-.511.123c-3.057.726-6.228 1.452-7.069 1.567-.84.152-3.4.65-5.731 1.146a331.18 331.18 0 01-4.428.936c-4.915.969-7.4 1.313-11.276 1.586-2.79.21-6.113.315-9.046.32h-.273c-2.817-.002-5.239-.097-6.423-.282-2.063-.344-3.324-1.528-3.019-2.79.383-1.413 3.783-3.935 9.094-6.686 12.342-6.42 11.845-6.113 15.551-9.323 2.446-2.14 3.133-2.98 3.133-3.744 0-1.269-.41-1.884-1.654-1.894h-.106c-.967.019-2.41.376-4.506 1.053-5.082 1.643-14.863 6.228-16.468 7.68-.42.382-1.72 1.07-2.904 1.49-1.146.459-2.713 1.223-3.439 1.796-.422.329-1.552 1.018-2.909 1.802a150.778 150.778 0 01-2.707 1.523c-2.37 1.298-5.655 3.094-7.26 4.011-7.795 4.318-10.24 5.005-12.686 3.477l-1.299-.802 1.07-.84a75.997 75.997 0 013.057-1.988c3.4-2.025 3.21-4.28-.573-6.151-1.431-.716-2.456-1.098-3.2-1.11h-.086c-1.062.026-1.527.854-1.796 2.6-.191 1.222-.764 2.33-2.178 4.05-1.338 1.61-2.274 2.37-3.08 2.381h-.029c-.425-.003-.815-.217-1.209-.623-.764-.726-.764-.803 0-4.356 1.07-5.273 1.109-6.305.191-7.222-.496-.497-1.002-.745-1.642-.754h-.06c-.629.005-1.386.233-2.386.678-2.216 1.031-2.827 2.483-2.827 7.068 0 5.464-.84 6.802-4.776 7.68-.516.13-7.342.231-16.005.237h-.97c-1.302 0-2.64-.003-4.002-.007-17.882-.039-19.907-.115-20.557-.688-.382-.344-.687-1.032-.687-1.528 0-.88.687-1.72 5.616-6.954 1.3-1.376 2.675-3.095 3.019-3.821.611-1.223.573-1.49-.23-4.738-1.222-5.044-1.146-6.267.688-8.941.84-1.223 1.796-2.484 2.178-2.79.917-.764 1.949-2.98 2.675-5.73.535-2.102.573-2.79.153-4.7-.23-1.223-.765-2.637-1.147-3.134a2.256 2.256 0 00-.07-.081l-.004-.006a2.604 2.604 0 00-.189-.19l-.002-.003-.032-.028-.019-.017-.002-.001c-.38-.334-.9-.635-1.516-.89-1.292-.54-2.998-.885-4.661-.885-1.49 0-2.407-.191-2.79-.611a2.704 2.704 0 01-.4-.499l-.058-.113c-.57-1.117-.492-2.526.07-4.003v-.001l.033-.085.016-.042c.082-.206.173-.413.273-.622l.021-.043.013-.026c1.323-2.7 4.121-5.496 7.413-7.08 2.309-1.076 5.076-1.558 9.96-1.884.426-.028.873-.056 1.344-.084.84-.038 1.757-.076 2.025-.114.267-.038 1.72-1.261 3.248-2.675 3.171-2.98 6.533-4.967 10.469-6.152 1.693-.537 2.648-.734 4.302-.737a47.8 47.8 0 012.576.088c2.292.115 6.113.344 8.558.458 1.927.102 3.11.128 3.946.056.667-.043 1.1-.135 1.365-.285.612-.344 2.752-.458 6.84-.42l5.96.076 3.248-1.834a29.37 29.37 0 002.243-1.453 29.015 29.015 0 003.152-2.506c.104-.096.204-.19.298-.282 2.273-2.217 3.145-2.95 3.917-2.94l.049.001c.261.014.514.112.81.264.659.363 1.815 1.656 2.742 2.934.59.94 1.155 2.05 1.664 3.29.182.538.404 1.162.6 1.686.223.596.366 1.24.407 1.723-.004.675-.252 1.159-.658 1.389-.526.255-1.275.13-2.004-.387a4.648 4.648 0 01-.305-.242c-.611-.496-1.452-.917-1.834-.917zM76.92 320.66c-.172.007-.247.272-.415.857-.229.946-.716 1.397-1.67 1.419h-.061a5.374 5.374 0 01-1.058-.12c-.993-.19-1.3-.458-1.49-1.299-.268-1.236-.857-1.83-1.896-1.857h-.113c-.114.001-.235.009-.36.023-.764.077-1.108.344-1.185.956-.114.878.42 1.528 2.599 2.98.935.623 1.814.94 2.672.945l.088-.001c1.004-.02 1.976-.471 2.97-1.364l1.53-1.376-.88-.688c-.354-.29-.56-.457-.7-.474l-.016-.001h-.015z"/>
    </g>
  </g>
</svg>
