<svg xmlns="http://www.w3.org/2000/svg" fill-rule="evenodd" stroke-linejoin="round" stroke-miterlimit="2" clip-rule="evenodd" viewBox="0 0 256 256">
  <path fill="none" d="M0 0h256v256H0z"/>
  <g fill-rule="nonzero">
    <path d="M112.99 57.78c.597.93 1.325 1.99 1.828 2.628.458.535 1.26 1.95 1.872 3.134.573 1.184 1.452 2.521 1.987 3.018.535.497 1.3 1.605 1.681 2.484.382.878 1.108 1.872 1.605 2.178 1.49.955 5.158 4.585 5.426 5.31.267.841-.497 2.446-1.796 3.669-.573.496-1.07 1.528-1.223 2.407-.153.84-.382 1.414-.497 1.299-.65-.688-2.407 4.509-3.17 9.323-.192 1.335-.534 2.555-.726 2.674l-.002.001c-.192.12-.802 1.493-1.336 3.018-.535 1.528-1.605 3.974-2.33 5.388-1.567 2.98-2.026 5.693-2.064 12.265 0 6.648-.42 8.367-2.98 12.112-4.05 5.999-5.388 8.291-5.655 9.743-.153.803-.65 2.063-1.147 2.79-.496.725-1.146 2.483-1.452 3.935-.687 3.248-2.407 7.03-4.088 9.017-1.49 1.72-6.725 6.954-7.833 7.871-.42.306-1.07.688-1.452.841-.611.23-.688.573-.496 2.369.19 2.063.19 2.14-.956 2.713-.993.496 120.053 11.348 120.053 9.82 0-.803-.23-1.376-.573-1.49-.382-.154-.573-.765-.573-1.758 0-.84-.191-1.834-.383-2.255-.993-1.834-2.903-11.118-3.63-17.538-.42-3.744-2.33-12.456-3.324-15.283-.878-2.407-3.859-6.878-4.585-6.878-.878 0-5.31-2.407-5.807-3.171-.956-1.414-1.3-5.044-1.338-13.068 0-8.444-.153-9.208-2.56-13.984-1.375-2.675-1.68-5.044-.802-6.19.382-.535 2.675-2.369 5.77-4.623 1.604-1.185 3.324-4.394 2.33-10.355-.993-5.96.191-6.801.344-8.597.306-3.018.23-3.324-.535-4.28-.917-1.222-2.33-1.375-4.7-.534-1.986.726-5.578 3.591-5.845 4.661-.115.497-.344.84-.497.726-.42-.229-1.834 2.484-2.102 4.012-.114.726-.305 1.872-.458 2.484-.115.65-.344 2.636-.497 4.47-.458 5.006-1.375 5.96-6.534 6.801-4.164.688-14.443.039-17.003-1.108-.993-.42-2.101-.802-2.445-.802-.382 0-1.49-.993-2.56-2.178-1.796-2.101-1.872-2.254-1.987-4.89l-.115-2.675 2.178-2.216c1.72-1.72 2.37-2.178 3.019-2.026.458.115 1.414.039 2.14-.19.726-.192 2.56-.535 4.088-.727 5.196-.687 8.635-3.438 10.049-8.1.879-2.98.879-3.515 0-5.502-.611-1.3-1.032-1.681-2.751-2.33-1.146-.421-2.79-.994-3.668-1.223-2.942-.803-3.439-2.675-1.834-6.534.917-2.178.955-2.445.573-5.731-.306-2.713-.688-3.936-1.758-6.076l-1.413-2.636.458-3.4c.459-3.592.497-9.82.076-11.77-.114-.649-.229-2.674-1.91-3.4-1.223-.573-1.643-.611-2.369-.19-1.566.802-3.706 3.17-4.012 3.476-.306.306-1.337.688-1.872 1.223-1.72 1.72-3.897 2.484-11.463 4.012-8.062 1.681-9.476 2.178-12.8 4.585-.915.648-1.906 1.182-2.29 1.184h-.004c-.345.003-1.108.537-1.718 1.147-.802.84-1.452 1.146-2.369 1.146-1.108 0-1.72-.42-4.164-2.942-1.605-1.643-3.134-3.439-3.44-3.974-1.222-2.369-6.533-5.12-10.736-5.54-1.605-.153-1.681-.115-3.018 1.91-.726 1.147-1.414 2.484-1.49 2.98a76.775 76.775 0 01-.574 2.79c-.611 2.866-.573 7.795.115 10.163.306 1.109.688 2.713.802 3.516.153.802.726 1.91 1.376 2.56.611.65 1.222 1.566 1.375 2.063.15.673 2.022 2.516 3.55 3.717l-.11-.049c1.986 1.452 4.202 3.095 4.89 3.515 0 0 2.14 1.681 3.095 1.796.655.079 1.74.444 2.358.667.299.153.562.354.781.602zm6.986 81.492c0-.344.726-1.376 1.643-2.293.879-.917 2.598-2.674 3.821-3.935 1.185-1.261 2.178-2.56 2.178-2.866 0-.955 3.018-2.522 5.387-2.79 2.14-.228 2.14-.228 3.936 1.453 1.605 1.528 1.758 1.872 1.758 3.477 0 .993-.306 2.407-.726 3.21-.42.802-.917 2.674-1.147 4.126-.382 2.75-.573 3.706-1.146 6.686-.191.956-.497 3.554-.65 5.846-.152 2.255-.42 4.203-.573 4.318-.458.268-.42 1.949.039 2.254.229.153.152.726-.191 1.605-.306.726-.574 2.178-.574 3.21 0 .993-.19 2.292-.42 2.904-.267.573-.573 1.757-.688 2.56-.015.11.35 3.296-.668 3.213-5.387-.436-21.954-1.978-33.408-3.096-1.064-.104-.77-1.531-.465-1.837.535-.535.153-1.987-.458-1.72-.268.077.382-.725 1.49-1.795 1.07-1.108 2.636-2.827 3.477-3.86.84-1.03 2.063-2.52 2.713-3.247.65-.764 2.407-2.904 3.935-4.814 3.248-4.05 6.84-8.139 9.132-10.393l1.605-2.216zm47.88-12.036c1.757.005 3.36 2.602 4.046 6.457.306 1.796.688 2.79 1.49 3.63.612.65 1.376 1.643 1.72 2.178.382.688 1.146 1.146 2.33 1.452.956.23 1.758.611 1.758.802 0 .42 1.146 1.07 2.178 1.261 1.414.23 3.095 1.49 6.648 4.93 2.828 2.75 3.783 3.973 4.356 5.463.382 1.07 1.108 2.522 1.605 3.248.458.724.877 1.525.879 1.794v.003c.002.27.498 1.262 1.146 2.253.611.993 1.223 2.56 1.376 3.477.152.994.61 2.063 1.146 2.598.458.459.993 1.529 1.146 2.331.115.84.497 2.025.84 2.636 1.032 2.026 1.223 2.484 1.223 2.599 0 .344-2.516 3.273-2.516 3.273l-61.975-4.903 2.593-2.764c.535-.535 2.14-1.414 3.63-1.987 2.521-.994 5.96-3.286 8.176-5.426.535-.535 2.56-2.369 4.47-4.088 5.083-4.624 10.623-11.004 12.037-13.947.65-1.375.726-1.834.344-2.942-.23-.687-.688-1.49-1.032-1.795-2.063-1.682-2.79-7.528-1.376-10.699.65-1.452 1.032-1.834 1.758-1.834h.005zm-19.91 20.556c-.727-.726-.574-2.865.305-3.744.993-.994 3.63-1.07 3.974-.115.152.344-.115 1.414-.65 2.37-.688 1.413-1.108 1.795-2.025 1.872-.611.076-1.337-.115-1.605-.383zm11.462-7.374c-.23-.306-.688-.458-.955-.344-.688.23-4.356-3.706-4.7-5.043-.382-1.49.535-5.732 1.796-8.177.573-1.146 1.222-2.56 1.452-3.133.19-.573.84-1.338 1.375-1.681 2.102-1.376 5.54.917 5.54 3.668 0 1.337-1.031 5.043-1.451 5.31-.23.115-.574.956-.841 1.835-.382 1.26-.382 1.757-.038 2.178.267.305.573 1.49.687 2.598.153 1.643.077 2.216-.458 2.713-.764.802-1.758.802-2.407.076zm-39.814-8.368c-.344-.458-.344-1.566 0-4.89.535-5.503.955-7.03 2.102-7.795 2.216-1.452 4.852.344 5.884 4.012.458 1.528.42 1.757-.306 2.75-.458.612-.802 1.185-.802 1.338 0 .153-.306.497-.65.764-.382.268-.688.65-.688.88 0 .61-3.63 3.476-4.394 3.476-.382 0-.878-.267-1.146-.535zm15.093-6.266c-.65-.458-3.898-4.738-4.51-5.999-.305-.611-1.871-2.407-3.476-3.974-1.605-1.566-3.133-3.17-3.324-3.591-.535-.994-.191-2.713.879-4.203 1.146-1.567 1.108-4.089-.039-6.457-.917-1.91-1.07-4.05-.65-9.247.23-3.057.918-4.738 3.172-7.718.459-.65 1.07-1.72 1.3-2.407.687-1.95 3.476-3.095 7.412-3.057 3.477.038 5.846.611 6.457 1.605.344.535.038 1.413-1.566 4.585-1.07 2.14-2.064 4.356-2.178 4.89-.115.535-.574 1.796-1.032 2.866-.802 1.758-.84 2.37-.802 9.247.038 4.508.229 7.68.496 8.176.268.497.268.688.039.535-.459-.267-.268 1.834.382 4.05.61 2.026.229 10.202-.497 10.66-.65.421-1.528.421-2.063.039zm19.868-58.995l-1.07-.84.88-.688c.458-.382 1.184-.688 1.604-.688 2.101 0 3.057 1.987 1.223 2.675-1.338.535-1.414.497-2.637-.459zm-21.626-4.7c-1.26-.687-1.681-1.719-2.293-5.272-.382-2.255-.382-3.21-.038-4.394.268-.84.459-2.064.459-2.713 0-1.643 1.337-4.509 2.789-6.075 1.414-1.452 4.661-2.56 6.534-2.216 1.26.229 3.859 2.636 6.304 5.846 1.032 1.375 1.146 1.719.803 2.407-.344.611-.306 1.299.038 2.674.535 2.102.076 3.821-.994 3.821-.458 0-.573-.535-.573-2.598 0-2.56-.038-2.636-1.605-4.203-1.834-1.758-4.203-2.751-6.648-2.751-1.337 0-1.758.153-2.101.879-.268.458-.841 1.184-1.3 1.643-.458.42-1.146 1.757-1.528 2.942-.611 1.91-.611 2.33-.153 3.21.306.534.956 1.26 1.452 1.604.84.535.955.535 1.338-.114 1.222-2.064 1.872-2.56 3.018-2.446.917.077 1.3.382 1.567 1.146.305.88.229 1.223-.535 2.026-.535.573-1.3.955-1.987.955-.611 0-1.146.229-1.223.496-.076.23-.306 1.147-.458 1.987-.382 1.72-1.223 2.064-2.866 1.147zm-20.284-4.856l.045.072-.033-.011-.037-.102.025.04zm-7.112-5.842c.612-.535 1.605-1.07 2.14-1.184 3.783-.803 4.394-1.223 4.814-3.21.306-1.414 1.108-2.369 1.796-2.101.726.267 1.872 2.56 1.872 3.706 0 1.834-.993 4.012-2.56 5.54-.683.626-1.26 1.253-1.51 1.579l-.018-.05c-.243.38-1.02.07-.962-.362 1.652-2.479 1.163-4.58-3.274-1.47l-.005-.003-.001.006v.001l-.008.005-.042.03a1.518 1.518 0 01-.274.072l.019-.037c-.306.076-.65 0-.993-.191l.049.063c-1.006-.751-1.856-1.675-1.043-2.394zm1.053 2.732l.023.005.457.381-.008-.006-.013-.009-.46-.37zm-2.36-1.895c.081-.035.567.636.567.636.023.03.31-.384.334-.353l-.9-.283z"/>
    <path d="M108.833 237.351c.41.006.824.103 1.209.309 1.337.726 1.26 3.362-.153 4.28a1.38 1.38 0 01-.756.23h-.036c-1.262.008-2.876-1.295-2.876-2.6 0-1.273 1.25-2.218 2.571-2.22l.041.001zm6.176-68.85c-.917 0-1.91.994-1.91 1.95 0 .916 1.146 3.476 2.75 6.151 2.14 3.592 3.363 6.152 3.363 7.069 0 1.023-1.542 2.761-2.462 2.789h-.022c-1.375 0-4.7-1.758-6.533-3.477-1.032-.955-2.484-2.063-3.172-2.407-.59-.315-.928-.468-1.23-.464-.286.005-.54.148-.948.426l-.046.029-.046.03-.045.031-.044.032-.044.033-.043.033-.042.035-.042.034-.04.036-.04.036-.038.035v.002l-.037.035h-.001l-.02.02-.016.018-.019.02-.016.016-.018.02-.015.017-.018.02-.015.017-.017.02-.013.016-.017.021-.012.016-.016.021-.012.015-.015.02-.01.016-.014.02-.01.014v.001l-.014.02-.008.014v.001l-.013.02-.008.013v.001l-.011.02-.007.013-.001.001-.01.02-.006.012-.001.001-.008.019-.006.012v.001l-.007.018-.005.012-.001.002-.006.016-.004.012v.002l-.005.016-.004.012v.001l-.003.015-.003.012v.002l-.002.013-.001.012-.001.013v.023l-.001.007v.015l-.003.015-.002.016-.002.015-.004.018-.003.015-.005.02-.004.015-.006.02-.006.016-.007.022-.006.015-.009.023-.006.016-.01.024-.008.016-.011.025-.008.016-.013.026-.008.016-.014.027-.01.016-.014.027-.01.017-.016.027-.011.018-.017.028-.011.018-.018.027-.012.02-.018.027-.014.02-.019.027-.014.02-.019.027-.015.02-.02.027-.016.021-.02.026-.017.022-.02.026-.038.048-.04.047-.04.048-.042.047-.042.047-.043.047-.044.046-.044.045-.046.045-.045.044-.047.044-.917.84-1.643-.764c-.9-.45-1.485-.705-1.921-.73l-.05-.003c-.605-.011-.921.443-1.43 1.46-.802 1.528-1.948 2.292-3.553 2.292-.494 0-2.228-1.501-5.232-4.503-.187-.187-.379-.38-.575-.579-3.947-4.086-5.912-5.806-8.19-6.822l-.064-.056-.01.023c-.832-.365-1.709-.639-2.74-.901-2.866-.688-4.242-.497-8.1 1.222-1.844.828-5.28 3.988-6.224 5.653l-.043.079c-.573 1.184-2.79 1.604-10.355 1.872-6.725.267-11.5.955-12.532 1.796-.803.687-1.338 2.254-.88 2.713.23.229 1.53.764 2.905 1.26 3.782 1.338 4.89 2.178 6.266 4.7.993 1.872 1.184 2.675 1.184 4.814 0 2.752-.42 4.51-2.712 11.234-1.682 4.852-1.834 6.763-.803 9.934.65 2.178 1.758 3.477 5.884 7.107 1.682 1.452 1.758 1.643 2.026 4.203.111 1.2.244 2.032.438 2.593.076.288.15.493.211.578.129.146.28.256.447.328.177.092.383.131.623.131.398 0 .747-.163 1.042-.475.075-.064.149-.135.219-.213.162-.182.346-.624.5-1.175.108-.362.194-.773.256-1.23.018-.128.034-.257.046-.384.115-1.146.306-2.827.459-3.668.344-2.102-.459-3.439-3.936-6.763-2.827-2.675-2.904-2.828-3.057-4.853-.19-2.063.077-3.018 2.14-8.94.459-1.261.994-2.599 1.185-2.943 1.07-1.872.038-10.507-1.567-13.22-1.07-1.834-.955-3.783.191-4.318.299-.134.556-.21.84-.212.44-.003.943.175 1.758.595 3.095 1.49 3.974 2.254 5.464 4.47.803 1.26 1.681 2.445 1.91 2.636.268.23.765 1.261 1.147 2.293.879 2.56 2.713 6.266 3.515 7.145.44.494.939.71 1.418.708l.04-.001c1.208-.04 2.28-1.47 1.981-3.343-.153-.803-.611-1.873-1.032-2.408-.42-.534-1.184-1.604-1.72-2.369-.496-.764-1.375-1.643-1.948-1.91-2.483-1.184-3.439-4.738-1.643-6.075 2.79-2.102 2.942-2.293 3.21-3.898.573-3.63 2.79-5.005 8.024-5.043 4.05 0 4.547.267 8.75 4.509 3.056 3.133 3.706 4.432 3.553 7.336-.091 2.1.327 2.988 1.506 2.991h.07c.285-.008.611-.064.984-.164.688-.19 2.484-.382 3.974-.458.415-.015.774-.022 1.088-.021 1.36.006 1.868.18 2.427.708 1.07.956.879 2.904-.573 6.152-3.057 6.801-5.502 16.239-5.006 19.028.306 1.681 1.873 3.21 3.592 3.515.223.046.49.069.787.07h.082c1.434-.015 3.547-.502 5.13-1.216.65-.306 2.445-1.07 4.012-1.758 5.808-2.521 14.252-9.399 17.843-14.48 3.248-4.662 3.668-5.808 3.86-10.317.152-3.745.076-4.318-1.07-7.833-.688-2.102-2.064-5.35-3.095-7.298-2.064-3.82-2.37-5.617-1.108-6.304.42-.23 2.598-.574 4.852-.803l.242-.025c1.654-.17 3.177-.377 3.955-.547.71-.124 1.293-.245 1.65-.345.916-.305 1.871-.382 2.1-.19.215.173 2.47.442 5.846.759 2.233.32 5.824.798 8.177.921 3.943.187 10.913.633 17.608 1.12 3.333.249 6.246.47 8.298.638 2.636.23 5.655.458 6.687.535 3.72.255 8.461.798 11.92 1.325 1.478.24 2.837.498 4.028.766.606.186 1.222.318 1.492.373l.098.02c1.68.42 3.859.802 4.89.802 2.025 0 3.516.611 4.7 1.91.356.389.904.832 1.319 1.074.493.329 1.095.662 1.818 1.013 2.46 1.522 6.317 4.301 7.35 5.377l.059.063c1.643 1.796 2.904 4.356 3.859 7.795.802 2.98.879 3.897.84 12.189-.038 7.527-.152 9.208-.687 10.202-.344.687-.612 2.14-.612 3.324 0 2.421-.403 3.128-2.993 3.143h-.152a32.75 32.75 0 01-2.013-.087 30.92 30.92 0 00-2.035-.077h-.412c-1.37.009-2.702.101-3.705.269-7.648 1.289-23.678 4.51-35.716 7.15-3.45.755-6.555 1.459-9.012 2.05l-.511.123c-3.057.725-6.228 1.451-7.069 1.566-.84.153-3.4.65-5.731 1.146-1.682.366-3.135.674-4.428.937-4.915.968-7.4 1.313-11.276 1.585-2.79.21-6.113.315-9.046.32h-.273c-2.817-.001-5.239-.097-6.423-.282-2.063-.344-3.324-1.528-3.018-2.789.382-1.414 3.782-3.935 9.093-6.686 12.342-6.42 11.845-6.114 15.551-9.323 2.446-2.14 3.133-2.98 3.133-3.745 0-1.268-.41-1.883-1.654-1.893h-.106c-.967.018-2.41.375-4.506 1.052-5.082 1.643-14.863 6.229-16.468 7.68-.42.383-1.72 1.07-2.904 1.49-1.146.46-2.713 1.223-3.439 1.796-.422.329-1.552 1.018-2.909 1.802a150.778 150.778 0 01-2.707 1.523c-2.37 1.299-5.655 3.095-7.26 4.012-7.795 4.317-10.24 5.005-12.685 3.477l-1.3-.803 1.07-.84a75.997 75.997 0 013.057-1.987c3.4-2.025 3.21-4.28-.573-6.152-1.431-.715-2.455-1.097-3.2-1.11h-.086c-1.062.026-1.527.854-1.796 2.6-.19 1.223-.764 2.331-2.178 4.05-1.337 1.61-2.274 2.37-3.08 2.382h-.028c-.426-.004-.815-.217-1.21-.624-.764-.726-.764-.802 0-4.356 1.07-5.273 1.109-6.304.192-7.221-.497-.497-1.003-.745-1.643-.755h-.06c-.629.005-1.386.234-2.386.678-2.216 1.032-2.827 2.484-2.827 7.069 0 5.464-.84 6.801-4.776 7.68-.516.129-7.342.23-16.004.236h-.97c-1.303 0-2.642-.002-4.003-.007-17.882-.038-19.907-.114-20.556-.688-.383-.343-.688-1.031-.688-1.528 0-.879.688-1.72 5.617-6.954 1.299-1.375 2.674-3.095 3.018-3.82.611-1.224.573-1.491-.23-4.739-1.222-5.043-1.145-6.266.689-8.94.84-1.223 1.795-2.484 2.177-2.79.917-.764 1.95-2.98 2.675-5.731.535-2.102.573-2.79.153-4.7-.23-1.223-.764-2.636-1.146-3.133a2.256 2.256 0 00-.07-.082l-.005-.005a2.604 2.604 0 00-.189-.19l-.002-.003-.032-.028-.019-.018h-.001c-.38-.335-.9-.636-1.517-.891-1.292-.54-2.998-.885-4.66-.885-1.491 0-2.408-.19-2.79-.611a2.704 2.704 0 01-.4-.498l-.059-.113c-.57-1.118-.491-2.527.07-4.004l.033-.085.016-.042c.083-.206.174-.414.274-.622l.02-.043.013-.026c1.323-2.701 4.121-5.496 7.414-7.08 2.308-1.076 5.075-1.559 9.958-1.885.427-.028.875-.056 1.345-.083.84-.038 1.758-.077 2.025-.115.268-.038 1.72-1.26 3.248-2.674 3.171-2.98 6.534-4.968 10.47-6.152 1.692-.537 2.647-.735 4.301-.738a47.8 47.8 0 012.576.088c2.292.115 6.113.344 8.559.459 1.926.101 3.11.127 3.945.055.668-.043 1.1-.135 1.366-.284.611-.344 2.75-.459 6.839-.42l5.96.076 3.248-1.834a29.37 29.37 0 002.243-1.453 29.015 29.015 0 003.152-2.506c.104-.096.204-.19.299-.283 2.273-2.216 3.144-2.95 3.916-2.94l.049.001c.261.014.515.112.81.265.659.363 1.815 1.655 2.742 2.933.59.94 1.155 2.05 1.664 3.29.182.538.404 1.162.6 1.686.224.596.366 1.24.407 1.723-.003.675-.252 1.16-.658 1.39-.526.254-1.275.13-2.004-.388a4.648 4.648 0 01-.305-.241c-.611-.497-1.452-.917-1.834-.917zM81.303 185.22c-.172.008-.247.273-.415.858-.229.946-.716 1.397-1.67 1.418l-.06.001a5.374 5.374 0 01-1.059-.12c-.993-.191-1.299-.459-1.49-1.3-.267-1.236-.857-1.83-1.896-1.856l-.056-.001H74.6c-.114.002-.235.01-.36.024-.764.076-1.108.344-1.184.955-.115.879.42 1.528 2.598 2.98.935.624 1.815.941 2.672.945h.088c1.004-.02 1.977-.472 2.971-1.365l1.528-1.375-.878-.688c-.355-.29-.56-.458-.701-.475l-.016-.001h-.015z"/>
  </g>
</svg>
