<svg xmlns="http://www.w3.org/2000/svg" fill-rule="evenodd" stroke-linejoin="round" stroke-miterlimit="2" clip-rule="evenodd" viewBox="0 0 2356 512">
  <path fill="none" d="M0 0h2355.7v512H0z"/>
  <path fill="url(#_Radial1)" d="M241.012 130.397h200.505v475.36H241.012z" transform="matrix(2.55357 0 0 1.07708 -615.441 -140.447)"/>
  <path fill="#fff" d="M152.312 414.373a4.997 4.997 0 01-6.777-.73 4.999 4.999 0 01.242-6.81c44.502-44.49 106.034-106.01 128.375-128.35a4.998 4.998 0 00-3.535-8.536H108.07a5 5 0 01-3.535-8.536l44.791-44.792a.02.02 0 01.015-.006c.005 0 .011-.002.014-.006l58.124-58.103a5 5 0 00-3.535-8.536H108.07a5 5 0 01-3.535-8.536c12.196-12.196 34.004-34.004 41.868-41.87a10.003 10.003 0 017.071-2.928H403.93a5 5 0 013.535 8.536l-41.868 41.869a10.003 10.003 0 01-7.07 2.929h-58.402a9.998 9.998 0 00-7.07 2.928l-55.2 55.181a4.999 4.999 0 003.536 8.536H401a5 5 0 013 9c-40.582 30.435-174.45 130.83-251.689 188.76z"/>
  <g>
    <path fill-rule="nonzero" d="M877.857 97.21h-103.75v285.417h-11.25V97.21H652.024V86.377h225.833v10.834zM981.322 386.793c-25.834 0-47.917-10-65.417-30-17.916-20-27.083-45.416-27.083-75.833v-12.916c0-32.084 9.167-58.334 26.666-78.75 17.917-20.417 40-30.833 66.667-30.833 24.583 0 44.167 7.916 58.75 24.166 14.167 15.833 21.667 37.917 21.667 65.833v16.667h-162.5v15.833c0 26.667 7.5 49.167 22.5 67.5 15.416 18.333 35 27.5 58.75 27.5 13.333 0 25.833-2.5 37.916-7.5 12.084-4.583 22.084-11.25 29.584-19.583l5.833 8.75c-7.5 8.333-17.5 15.416-29.583 20.833-12.5 5.833-27.084 8.333-43.75 8.333zm.833-217.5c-22.5 0-41.25 7.917-55.833 23.75-14.584 15.834-22.917 35.834-24.583 60l.416 1.25h149.583v-6.666c0-22.917-6.25-41.25-18.75-56.25-12.5-14.583-29.166-22.083-50.833-22.083zM1123.54 162.627l1.25 44.167c6.667-15.417 16.25-27.084 28.75-35.834 12.083-8.333 27.5-12.5 45-12.5 18.75 0 34.167 4.584 45.833 14.167 11.667 9.167 20 24.167 24.584 43.75 6.25-18.333 15.833-32.5 28.75-42.917 13.333-10 29.583-15.416 49.166-15.416 24.167 0 42.5 7.916 55 24.166 12.917 15.834 19.167 40.834 19.167 74.584v125.833h-11.25v-126.25c0-31.667-5.834-54.167-17.084-67.5-11.25-12.917-26.666-19.583-45.416-19.583-22.917 0-40 6.666-52.083 20-11.667 13.333-19.167 30.416-22.917 51.666.417 2.5.417 5.417.417 7.917.416 2.917.416 5.833.416 8.75v125h-11.25V269.71h-.416v-7.5c0-2.5 0-5 .416-7.5-.416-31.25-6.25-53.333-17.5-66.25-11.25-12.5-26.25-19.166-45.416-19.166-22.5 0-39.167 6.666-51.25 19.583-11.667 12.917-19.167 29.583-22.917 50.417v143.333h-10.833V269.71h-.417v-5.416c0-2.084 0-4.167.417-7.084v-94.583h9.583zM1657.49 276.794c0 33.75-7.5 60.416-22.083 80.416-14.583 19.583-35 29.583-60.416 29.583-17.084 0-32.084-3.333-45-10-12.5-6.666-22.5-16.25-30-27.916V467.21h-10.833v-145l-.417-1.666v-90s0-.417.417-1.25v-66.667h8.333l2.5 38.75c7.083-13.333 17.083-23.75 30-31.25 12.5-7.917 27.5-11.666 44.583-11.666 25.833 0 45.833 10.416 60.833 30.833 14.584 20.416 22.084 48.333 22.084 82.916v4.584zm-11.25-4.584c0-30.416-6.25-55-18.333-74.166-12.5-19.167-30-28.75-53.333-28.75-20.833 0-37.083 5.416-48.75 15.833-12.083 10.417-20.416 23.333-25.833 38.75v105c5.833 14.583 15 25.833 27.5 34.166 12.5 8.75 28.333 12.917 47.5 12.917 23.333 0 40.833-9.167 52.916-27.083 12.084-17.917 18.334-41.667 18.334-72.083v-4.584zM1794.31 386.793c-25.834 0-47.917-10-65.417-30-17.917-20-27.083-45.416-27.083-75.833v-12.916c0-32.084 9.166-58.334 26.666-78.75 17.917-20.417 40-30.833 66.667-30.833 24.583 0 44.166 7.916 58.75 24.166 14.166 15.833 21.666 37.917 21.666 65.833v16.667h-162.5v15.833c0 26.667 7.5 49.167 22.5 67.5 15.417 18.333 35 27.5 58.75 27.5 13.334 0 25.834-2.5 37.917-7.5 12.083-4.583 22.083-11.25 29.583-19.583l5.834 8.75c-7.5 8.333-17.5 15.416-29.584 20.833-12.5 5.833-27.083 8.333-43.75 8.333zm.833-217.5c-22.5 0-41.25 7.917-55.833 23.75-14.584 15.834-22.917 35.834-24.584 60l.417 1.25h149.583v-6.666c0-22.917-6.25-41.25-18.75-56.25-12.5-14.583-29.167-22.083-50.833-22.083zM2063.611 328.877c0-11.667-5-22.5-15-32.083-10-9.584-27.5-17.084-52.083-22.5-26.25-5.417-45.417-12.5-57.084-21.25-11.666-8.75-17.5-21.667-17.5-39.167 0-15.833 6.667-28.75 20-39.583 13.334-10.417 31.25-15.833 53.75-15.833 24.167 0 43.334 5.833 57.084 17.083 14.166 11.25 20.833 26.25 20 44.583l-.417 1.25h-9.167c0-14.583-6.25-26.667-18.333-36.667-12.083-10.416-28.75-15.416-49.167-15.416-20.833 0-36.25 4.583-47.083 13.333-10.417 9.167-15.833 19.167-15.833 30.833 0 11.667 4.583 21.667 13.333 29.584 9.167 8.333 27.083 15.416 53.333 21.25 24.584 5.833 43.334 13.75 55.834 23.333 12.916 10 19.166 23.75 19.166 41.25 0 17.083-7.083 31.25-21.25 42.083-14.166 10.417-32.5 15.833-55.833 15.833-25.833 0-45.833-5.416-60.417-17.083-14.583-11.666-21.666-25.416-20.416-41.666l.417-1.25h8.75c1.25 17.083 8.75 29.583 22.5 37.5 13.75 7.916 30 11.666 49.166 11.666 20 0 36.25-5 48.333-14.167 11.667-9.583 17.917-20.416 17.917-32.916zM2158.844 103.044v59.583h54.167v11.25h-54.167V325.96c0 17.917 2.917 30.834 9.167 38.333 5.833 7.917 14.167 11.667 24.167 11.667 3.75 0 6.666 0 9.583-.417 2.917-.416 6.667-.833 12.083-1.666l1.667 10a42.31 42.31 0 01-10.417 2.5c-3.75.416-7.916.416-12.5.416-14.583 0-25.833-4.583-33.75-14.166-7.5-10-11.25-25.417-11.25-46.667V173.877h-40.833v-11.25h40.833v-59.583h11.25z"/>
  </g>
  <defs>
    <radialGradient id="_Radial1" cx="0" cy="0" r="1" gradientTransform="scale(283.557 672.26) rotate(45 .19 1.123)" gradientUnits="userSpaceOnUse">
      <stop offset="0" stop-color="#00c9eb"/>
      <stop offset="1" stop-color="#9100e4"/>
    </radialGradient>
  </defs>
</svg>
